<?xml version="1.0" encoding="UTF-8"?>
<!DOCTYPE svg PUBLIC "-//W3C//DTD SVG 1.1//EN" "http://www.w3.org/Graphics/SVG/1.1/DTD/svg11.dtd">
<!-- Creator: CorelDRAW 2021 (64-Bit) -->
<svg xmlns="http://www.w3.org/2000/svg" xml:space="preserve" width="101.6mm" height="81.5974mm" version="1.1" style="shape-rendering:geometricPrecision; text-rendering:geometricPrecision; image-rendering:optimizeQuality; fill-rule:evenodd; clip-rule:evenodd"
viewBox="0 0 10160 8159.74"
 xmlns:xlink="http://www.w3.org/1999/xlink"
 xmlns:xodm="http://www.corel.com/coreldraw/odm/2003">
 <defs>
  <style type="text/css">
   <![CDATA[
    .fil0 {fill:white}
    .fil6 {fill:#0AC8DB;fill-opacity:0.301961}
    .fil7 {fill:white;fill-opacity:0.701961}
    .fil8 {fill:white}
    .fil20 {fill:url(#id0)}
    .fil2 {fill:url(#id1)}
    .fil15 {fill:url(#id2);fill-opacity:0.701961}
    .fil19 {fill:url(#id3);fill-opacity:0.701961}
    .fil13 {fill:url(#id4);fill-opacity:0.701961}
    .fil17 {fill:url(#id5);fill-opacity:0.701961}
    .fil4 {fill:url(#id6);fill-opacity:0.701961}
    .fil12 {fill:url(#id7);fill-opacity:0.701961}
    .fil16 {fill:url(#id8);fill-opacity:0.701961}
    .fil1 {fill:url(#id9);fill-opacity:0.701961}
    .fil14 {fill:url(#id10);fill-opacity:0.701961}
    .fil10 {fill:url(#id11);fill-opacity:0.701961}
    .fil9 {fill:url(#id12);fill-opacity:0.701961}
    .fil3 {fill:url(#id13);fill-opacity:0.701961}
    .fil18 {fill:url(#id14);fill-opacity:0.701961}
    .fil21 {fill:url(#id15);fill-opacity:0.701961}
    .fil11 {fill:url(#id16)}
    .fil5 {fill:url(#id17)}
   ]]>
  </style>
  <linearGradient id="id0" gradientUnits="userSpaceOnUse" x1="9615.8" y1="-932.23" x2="-3070.82" y2="3358.62">
   <stop offset="0" style="stop-opacity:1; stop-color:#83E127"/>
   <stop offset="0.231373" style="stop-opacity:1; stop-color:#01A582"/>
   <stop offset="0.729412" style="stop-opacity:1; stop-color:#01547E"/>
   <stop offset="1" style="stop-opacity:1; stop-color:#042244"/>
  </linearGradient>
  <linearGradient id="id1" gradientUnits="userSpaceOnUse" xlink:href="#id0" x1="9692.9" y1="3525.2" x2="10507.53" y2="3875.62">
  </linearGradient>
  <linearGradient id="id2" gradientUnits="userSpaceOnUse" xlink:href="#id0" x1="1426.19" y1="4711.08" x2="-200.3" y2="5419.82">
  </linearGradient>
  <linearGradient id="id3" gradientUnits="userSpaceOnUse" xlink:href="#id0" x1="9534.59" y1="767.32" x2="10349.22" y2="1117.74">
  </linearGradient>
  <linearGradient id="id4" gradientUnits="userSpaceOnUse" x1="-2242.15" y1="660.85" x2="4970.58" y2="6743.28">
   <stop offset="0" style="stop-opacity:1; stop-color:#83E127"/>
   <stop offset="0.25098" style="stop-opacity:1; stop-color:#01A582"/>
   <stop offset="0.901961" style="stop-opacity:1; stop-color:#01547E"/>
   <stop offset="1" style="stop-opacity:1; stop-color:#042244"/>
  </linearGradient>
  <linearGradient id="id5" gradientUnits="objectBoundingBox" xlink:href="#id0" x1="129.43%" y1="47.0147%" x2="0%" y2="0%">
  </linearGradient>
  <linearGradient id="id6" gradientUnits="userSpaceOnUse" xlink:href="#id0" x1="-1404.52" y1="4747.82" x2="1634.11" y2="6054.9">
  </linearGradient>
  <linearGradient id="id7" gradientUnits="userSpaceOnUse" xlink:href="#id0" x1="8404.68" y1="809.78" x2="11082.9" y2="1961.83">
  </linearGradient>
  <linearGradient id="id8" gradientUnits="userSpaceOnUse" xlink:href="#id0" x1="3129.47" y1="1081.9" x2="2720.31" y2="905.9">
  </linearGradient>
  <linearGradient id="id9" gradientUnits="objectBoundingBox" xlink:href="#id0" x1="0%" y1="52.9845%" x2="101.576%" y2="109.339%">
  </linearGradient>
  <linearGradient id="id10" gradientUnits="userSpaceOnUse" xlink:href="#id0" x1="2879.93" y1="3774.47" x2="2287.18" y2="3519.5">
  </linearGradient>
  <linearGradient id="id11" gradientUnits="userSpaceOnUse" xlink:href="#id0" x1="9158.77" y1="515.31" x2="-3527.85" y2="4806.16">
  </linearGradient>
  <linearGradient id="id12" gradientUnits="userSpaceOnUse" xlink:href="#id0" x1="1559.25" y1="1008.81" x2="-533.02" y2="1920.51">
  </linearGradient>
  <linearGradient id="id13" gradientUnits="userSpaceOnUse" xlink:href="#id0" x1="13661.1" y1="672.13" x2="974.48" y2="4962.98">
  </linearGradient>
  <linearGradient id="id14" gradientUnits="userSpaceOnUse" xlink:href="#id0" x1="1116.21" y1="2366.88" x2="730.68" y2="2201.05">
  </linearGradient>
  <linearGradient id="id15" gradientUnits="userSpaceOnUse" xlink:href="#id0" x1="2288.91" y1="2613.13" x2="4381.18" y2="1701.43">
  </linearGradient>
  <linearGradient id="id16" gradientUnits="userSpaceOnUse" xlink:href="#id0" x1="4992.86" y1="4943.4" x2="6186.11" y2="5456.68">
  </linearGradient>
  <linearGradient id="id17" gradientUnits="userSpaceOnUse" xlink:href="#id0" x1="6725.07" y1="4564.66" x2="8855.83" y2="5481.22">
  </linearGradient>
 </defs>
 <g id="Слой_x0020_1">
  <metadata id="CorelCorpID_0Corel-Layer"/>
  <rect class="fil0" y="1.06" width="10160" height="8159.74"/>
  <path class="fil1" d="M5236.52 2736.87c171.7,-0.82 311.55,137.71 312.37,309.42 0.81,171.7 -137.72,311.55 -309.42,312.37 -171.71,0.81 -311.56,-137.72 -312.37,-309.42 -0.82,-171.71 137.71,-311.56 309.42,-312.37z"/>
  <path class="fil2" d="M10160 3816.38c-158.52,-13.54 -283.31,-146.1 -284.08,-308.26 -0.77,-163.18 124.29,-297.57 284.08,-311.23l0 619.49z"/>
  <path class="fil3" d="M7831.07 2267.78c239.29,196.44 612.29,183.14 833.13,-29.72 192.32,-185.37 517.18,-196.98 725.57,-25.9 102.75,84.34 157.96,197.35 164.53,312.47l76.23 0c-6.63,-133.37 -70.13,-264.54 -189.14,-362.23 -239.28,-196.44 -612.28,-183.14 -833.14,29.73 -192.3,185.36 -517.16,196.97 -725.55,25.89l-51.63 49.76 51.62 -49.76c-208.39,-171.07 -221.41,-460.05 -29.11,-645.41 220.86,-212.87 205.89,-544.67 -33.41,-741.11 -66.84,-54.87 -144.11,-93.36 -225.59,-115.71l-216.85 0 -131.55 0c-96.15,26.35 -186,74.94 -259.15,145.45 -192.3,185.36 -517.16,196.96 -725.56,25.89 -59.85,-49.13 -103.56,-108 -130.94,-171.34l-80.8 0c30.31,81.97 83.78,158.42 160.12,221.09 239.29,196.44 612.3,183.14 833.13,-29.72 192.31,-185.37 517.18,-196.97 725.57,-25.9 208.39,171.08 221.41,460.05 29.09,645.42 -220.83,212.86 -205.87,544.66 33.43,741.1z"/>
  <path class="fil4" d="M432.34 3518.91c610.1,-2.89 1112.4,465.87 1161.27,1063.97l-291.68 0c-47.85,-436.84 -419.05,-775.75 -868.22,-773.63 -158.18,0.75 -306.28,43.73 -433.71,118.16l0 -322.93c133.47,-54.46 279.36,-84.84 432.34,-85.57z"/>
  <path class="fil5" d="M8013.11 3702.92c449.11,-2.12 814.91,360.22 817.05,809.33 0.11,23.8 -0.86,47.34 -2.75,70.63l-204.5 0c2.5,-22.88 3.76,-46.11 3.65,-69.66 -1.6,-336.67 -275.82,-608.29 -612.48,-606.7 -336.67,1.6 -608.29,275.82 -606.7,612.48 0.1,21.58 1.35,42.89 3.63,63.88l-204.53 0c-1.69,-20.76 -2.6,-41.74 -2.7,-62.91 -2.12,-449.11 360.22,-814.91 809.33,-817.05z"/>
  <path class="fil6" d="M10160 4582.88l-10160 0c0,0 7424.31,-463.02 10160,-2952.2l0 2952.2z"/>
  <path class="fil6" d="M-0 715.79l5079.35 0c-1246.48,246.83 -3991.55,687.72 -5079.35,667.62l0 -667.62z"/>
  <path class="fil7" d="M7340.28 3290.47c115.15,-0.54 208.94,92.36 209.49,207.51 0.54,115.15 -92.36,208.93 -207.51,209.48 -115.15,0.55 -208.93,-92.36 -209.48,-207.5 -0.55,-115.15 92.36,-208.94 207.5,-209.49zm0.25 52.2c86.32,-0.4 156.63,69.24 157.04,155.56 0.41,86.31 -69.24,156.62 -155.56,157.03 -86.31,0.41 -156.62,-69.23 -157.03,-155.55 -0.41,-86.32 69.23,-156.63 155.55,-157.04z"/>
  <path class="fil8" d="M9270.47 3080.09c-303.07,-1.46 -582.25,101.3 -803.72,274.58l944.9 -266.29c-46.37,-5.25 -93.47,-8.06 -141.18,-8.29zm-969.46 429.29c-39.27,43.61 -75.6,89.93 -108.72,138.6l1606.64 -452.77c-53.1,-24.1 -108.12,-44.71 -164.77,-61.55l-1333.15 375.72zm-186.3 268.46c-20.92,40.14 -39.84,81.47 -56.53,123.95l1986.98 -560c-36.1,-27.3 -73.68,-52.78 -112.59,-76.24l-1817.86 512.29zm-96.9 243.3c-10.76,37.86 -19.87,76.44 -27.17,115.66l2169.36 -611.38 0 -85.77c-6.01,-5.76 -12.08,-11.46 -18.2,-17.1l-2123.99 598.59zm-43.07 228.13c-3.52,36.16 -5.62,72.72 -6.09,109.71l2191.35 -617.57 0 -107.99 -2185.26 615.85zm-3.22 216.88c2.43,35.32 6.28,70.27 11.49,104.76l2176.99 -613.52 0 -107.98 -2188.48 616.74zm735.36 116.73l1453.12 -409.53 0 -107.98 -1836.27 517.51 383.15 0zm766.39 0l686.73 -193.53 0 -107.98 -1069.88 301.51 383.15 0zm686.73 -85.54l-303.54 85.54 303.54 0 0 -85.54z"/>
  <path class="fil8" d="M1125.22 1034.14c-124.93,0.59 -226.69,-100.21 -227.29,-225.15 -0.59,-124.93 100.21,-226.69 225.15,-227.29 124.93,-0.59 226.69,100.21 227.29,225.15 0.59,124.93 -100.21,226.69 -225.15,227.29z"/>
  <path class="fil9" d="M1057.63 747.9c6.65,23.38 12.27,47.2 16.78,71.42l-367.35 -103.53 236.63 0 113.94 32.11zm26.6 140.87c2.17,22.33 3.47,44.9 3.76,67.74l-854.15 -240.72 236.6 0 613.79 172.98zm1.99 133.92c-1.5,21.81 -3.88,43.39 -7.1,64.69l-1079.12 -304.12 0 -66.68 1086.22 306.11zm-19.28 127.94c-4.93,20.93 -10.66,41.56 -17.2,61.83l-1049.74 -295.84 0 -66.68 1066.94 300.69zm-39.41 122.26c-8.33,20.08 -17.44,39.75 -27.31,58.98l-1000.22 -281.88 0 -66.68 1027.53 289.58zm-59.92 116.48c-11.96,19.19 -24.7,37.85 -38.2,55.91l-929.41 -261.93 0 -66.68 967.61 272.7zm-82.5 110.11c-16.23,18.19 -33.28,35.65 -51.1,52.28l-834.01 -235.04 0 -66.68 885.11 249.44zm-110.14 102.33c-22.01,16.92 -44.93,32.73 -68.68,47.33l-706.29 -199.05 0 -66.68 774.97 218.4zm-150.06 91.08c-32.18,14.98 -65.53,27.88 -99.89,38.53l-525.02 -147.96 0 -66.68 624.91 176.11zm-233.33 67.61c-32.7,4.24 -66.03,6.52 -99.86,6.68 -66.68,0.31 -131.48,-7.59 -193.48,-22.67l-55.08 -15.52c-14.57,-4.68 -28.96,-9.76 -43.16,-15.24l0 -63.6 391.58 110.35z"/>
  <path class="fil10" d="M3328.74 2110.96c239.29,196.44 612.29,183.14 833.13,-29.72 192.32,-185.37 517.18,-196.98 725.57,-25.9 102.75,84.34 157.96,197.35 164.53,312.47l76.23 0c-6.63,-133.37 -70.13,-264.54 -189.14,-362.23 -239.28,-196.44 -612.28,-183.14 -833.14,29.73 -192.3,185.36 -517.16,196.97 -725.55,25.89l-51.63 49.76 51.62 -49.76c-208.39,-171.07 -221.41,-460.05 -29.11,-645.41 206.11,-198.65 206.81,-500.87 11.5,-700l-107.38 0c3.65,2.83 7.27,5.71 10.85,8.65 208.39,171.08 221.41,460.05 29.09,645.42 -220.83,212.86 -205.87,544.66 33.43,741.1zm-856.29 -1395.17c-193.6,174.37 -509.27,182.01 -713.31,14.52 -5.78,-4.75 -11.38,-9.6 -16.86,-14.52l-101.09 0c19.77,22.65 41.85,44.18 66.33,64.27 239.29,196.44 612.3,183.14 833.13,-29.72 12.75,-12.29 26.1,-23.79 39.94,-34.55l-108.14 0z"/>
  <path class="fil11" d="M5714.18 4460.82c120.66,-0.57 230.57,45.85 312.41,122.06l-236.28 0c-24.33,-5.37 -49.63,-8.17 -75.59,-8.05 -24.83,0.12 -49.01,2.9 -72.31,8.05l-236.32 0c80.79,-75.24 188.98,-121.5 308.09,-122.06z"/>
  <path class="fil12" d="M9263.02 715.79c-0.52,12.13 -0.78,24.33 -0.72,36.6 2.02,423.18 346.68,764.59 769.85,762.58 43.59,-0.21 86.28,-4.1 127.85,-11.29l0 258.79c-41.48,5.33 -83.74,8.21 -126.64,8.41 -564.5,2.68 -1024.28,-452.78 -1026.97,-1017.28 -0.06,-12.67 0.19,-25.26 0.59,-37.81l256.04 0z"/>
  <path class="fil13" d="M1963.88 4326.03c239.29,196.44 612.29,183.14 833.13,-29.72 192.32,-185.37 517.18,-196.98 725.57,-25.9 102.75,84.34 157.96,197.35 164.53,312.47l76.23 0c-6.63,-133.37 -70.13,-264.54 -189.14,-362.23 -239.28,-196.44 -612.28,-183.14 -833.14,29.73 -192.3,185.36 -517.16,196.97 -725.55,25.89l-51.63 49.76 51.62 -49.76c-208.39,-171.07 -221.41,-460.05 -29.11,-645.41 220.86,-212.87 205.89,-544.67 -33.41,-741.11 -239.29,-196.44 -612.28,-183.14 -833.14,29.74 -192.3,185.36 -517.16,196.96 -725.56,25.89 -208.39,-171.08 -221.41,-460.05 -29.1,-645.41 220.85,-212.88 205.88,-544.67 -33.41,-741.11 -95.38,-78.3 -212,-123.25 -331.77,-135.54l0 68.23c101.21,11.96 199.41,50.8 280.14,117.07 208.4,171.07 221.41,460.05 29.1,645.42 -220.84,212.86 -205.88,544.65 33.42,741.09 239.29,196.44 612.3,183.14 833.13,-29.72 192.31,-185.37 517.18,-196.97 725.57,-25.9 208.39,171.08 221.41,460.05 29.09,645.42 -220.83,212.86 -205.87,544.66 33.43,741.1z"/>
  <path class="fil8" d="M3904.25 4239.86c-187.14,-0.9 -359.53,62.55 -496.29,169.55l583.47 -164.43c-28.63,-3.24 -57.72,-4.98 -87.18,-5.12zm-598.63 265.08c-22.18,24.64 -42.85,50.67 -61.86,77.94l21.88 0 964.93 -271.93c-32.79,-14.88 -66.76,-27.61 -101.74,-38.01l-823.21 232zm433.28 77.94l643.72 -181.42c-22.29,-16.86 -45.5,-32.59 -69.53,-47.08l-810.82 228.5 236.63 0zm473.23 0l281.81 -79.42c-16.41,-18.16 -33.65,-35.55 -51.65,-52.13l-466.79 131.55 236.63 0zm345.01 0c-5.98,-8.57 -12.13,-17.02 -18.43,-25.35l-89.95 25.35 108.38 0z"/>
  <path class="fil14" d="M2521.61 4014.2c-124.93,0.59 -226.69,-100.21 -227.29,-225.15 -0.59,-124.93 100.21,-226.69 225.15,-227.29 124.93,-0.59 226.69,100.21 227.29,225.15 0.59,124.93 -100.21,226.69 -225.15,227.29z"/>
  <path class="fil15" d="M434.93 4056.52c145.48,-0.7 279.5,48.63 385.81,131.81l-453.58 -127.82c22.26,-2.53 44.87,-3.88 67.77,-3.99zm465.37 206.07c18.85,20.94 36.29,43.17 52.18,66.53l-771.23 -217.34c25.5,-11.56 51.9,-21.46 79.09,-29.54l639.96 180.35zm89.43 128.88c10.04,19.26 19.12,39.1 27.13,59.49l-953.81 -268.81c17.33,-13.11 35.38,-25.33 54.06,-36.6l872.62 245.92zm46.51 116.79c5.17,18.17 9.53,36.68 13.04,55.52l-1049.28 -295.72 0 -31.21c5.46,-5.41 11.02,-10.72 16.67,-15.93l1019.57 287.34zm-287.05 74.62l-749.19 -211.15 0 -51.82 933.14 262.97 -183.95 0zm-367.89 0l-381.3 -107.46 0 -51.84 565.27 159.3 -183.97 0zm-367.82 0l-13.48 -3.8 0 -51.83 197.4 55.63 -183.92 0z"/>
  <path class="fil16" d="M2882.13 1247.37c-86.24,0.41 -156.48,-69.17 -156.89,-155.41 -0.41,-86.24 69.17,-156.48 155.41,-156.89 86.24,-0.41 156.48,69.17 156.89,155.41 0.41,86.24 -69.17,156.48 -155.41,156.89z"/>
  <path class="fil17" d="M1427.68 3499.17c-81.26,0.39 -147.45,-65.17 -147.83,-146.43 -0.39,-81.26 65.17,-147.45 146.43,-147.83 81.26,-0.39 147.45,65.17 147.83,146.43 0.39,81.26 -65.17,147.45 -146.43,147.83z"/>
  <path class="fil18" d="M883.16 2522.8c-81.26,0.39 -147.45,-65.17 -147.83,-146.43 -0.39,-81.26 65.17,-147.45 146.43,-147.83 81.26,-0.39 147.45,65.17 147.83,146.43 0.39,81.26 -65.17,147.45 -146.43,147.83z"/>
  <path class="fil19" d="M10160 715.79l0 314.76c-39.51,18.47 -83.54,28.89 -130.01,29.11 -171.71,0.81 -311.56,-137.72 -312.38,-309.42 -0.05,-11.64 0.56,-23.14 1.75,-34.45l440.64 0z"/>
  <path class="fil17" d="M8426.57 1394.07c-81.26,0.39 -147.45,-65.17 -147.83,-146.43 -0.39,-81.26 65.17,-147.45 146.43,-147.83 81.26,-0.39 147.45,65.17 147.83,146.43 0.39,81.26 -65.17,147.45 -146.43,147.83z"/>
  <path class="fil17" d="M7124.71 1555.48c-81.26,0.39 -147.45,-65.17 -147.83,-146.43 -0.39,-81.26 65.17,-147.45 146.43,-147.83 81.26,-0.39 147.45,65.17 147.83,146.43 0.39,81.26 -65.17,147.45 -146.43,147.83z"/>
  <path class="fil1" d="M7895.69 2608.56c171.7,-0.82 311.55,137.71 312.37,309.42 0.81,171.7 -137.72,311.55 -309.42,312.37 -171.71,0.81 -311.56,-137.72 -312.37,-309.42 -0.82,-171.71 137.71,-311.56 309.42,-312.37z"/>
  <path class="fil20" d="M3860.88 715.79c197.52,116.25 454.37,114.8 649.58,0l-178.28 0c-95.32,25.16 -197.48,25.31 -293.24,0l-178.06 0zm1580.63 0c40.84,63.2 63.44,133.43 67.49,204.48l76.23 0c-3.49,-70.3 -22.8,-139.99 -57.69,-204.48l-86.03 0z"/>
  <path class="fil21" d="M3564.03 3455.13c-187.14,0.9 -359.53,-62.55 -496.29,-169.55l583.47 164.43c-28.63,3.24 -57.72,4.98 -87.18,5.12zm-598.63 -265.08c-24.25,-26.93 -46.68,-55.53 -67.13,-85.59l992.08 279.58c-32.79,14.88 -66.76,27.61 -101.74,38.01l-823.21 -232zm-115.04 -165.78c-12.92,-24.78 -24.6,-50.3 -34.91,-76.53l1226.95 345.79c-22.29,16.86 -45.5,32.59 -69.53,47.08l-1122.51 -316.34zm-59.83 -150.23c-6.65,-23.38 -12.27,-47.2 -16.78,-71.42l1379.97 388.91c-16.41,18.16 -33.65,35.55 -51.65,52.13l-1311.54 -369.62zm-26.6 -140.87c-2.17,-22.33 -3.47,-44.9 -3.76,-67.74l1476.97 416.24c-12.1,19.17 -25.01,37.77 -38.65,55.79l-1434.56 -404.29zm-1.99 -133.92c1.5,-21.81 3.88,-43.39 7.1,-64.69l1528.81 430.85c-8.46,20.06 -17.72,39.69 -27.73,58.87l-1508.18 -425.03zm19.28 -127.94c4.93,-20.93 10.66,-41.56 17.2,-61.83l1539.62 433.9c-5.05,20.9 -10.94,41.49 -17.6,61.72l-1539.22 -433.79zm39.41 -122.26c8.33,-20.08 17.44,-39.75 27.31,-58.98l1510.19 425.6c-1.64,21.77 -4.18,43.3 -7.54,64.55l-1529.96 -431.17zm59.92 -116.48c11.96,-19.19 24.7,-37.85 38.2,-55.91l1438.39 405.37c2.02,22.28 3.12,44.82 3.27,67.6l-1479.86 -417.06zm82.5 -110.11c16.23,-18.19 33.28,-35.65 51.1,-52.28l1317.46 371.28c6.45,23.33 11.87,47.11 16.2,71.25l-1384.76 -390.25zm110.14 -102.33c22.01,-16.92 44.93,-32.73 68.68,-47.33l1131.49 318.88c12.62,24.7 23.98,50.15 34.02,76.27l-1234.19 -347.82zm150.06 -91.08c32.18,-14.98 65.53,-27.88 99.89,-38.53l838.08 236.19c23.61,26.83 45.44,55.26 65.33,85.09l-1003.3 -282.75zm233.33 -67.61c32.7,-4.24 66.03,-6.52 99.86,-6.68 66.68,-0.31 131.48,7.59 193.48,22.67l55.08 15.52c94.84,30.44 181.99,78.1 257.75,139.32l-606.17 -170.83z"/>
  <path class="fil0" d="M6905.06 4582.88c136.46,-207.95 97.44,-479.38 -109.69,-649.41 -239.29,-196.44 -612.28,-183.14 -833.14,29.74 -192.3,185.36 -517.16,196.96 -725.56,25.89 -208.39,-171.08 -221.41,-460.05 -29.1,-645.41 220.85,-212.88 205.88,-544.67 -33.41,-741.11 -95.38,-78.3 -212,-123.25 -331.77,-135.54l0 68.23c101.21,11.96 199.41,50.8 280.14,117.07 208.4,171.07 221.41,460.05 29.1,645.42 -220.84,212.86 -205.88,544.65 33.42,741.09 239.29,196.44 612.3,183.14 833.13,-29.72 192.31,-185.37 517.18,-196.97 725.57,-25.9 191.93,157.56 218.12,415.12 70.82,599.65l90.49 0z"/>
  <path class="fil17" d="M6594.83 3066.58c-81.26,0.39 -147.45,-65.17 -147.83,-146.43 -0.39,-81.26 65.17,-147.45 146.43,-147.83 81.26,-0.39 147.45,65.17 147.83,146.43 0.39,81.26 -65.17,147.45 -146.43,147.83z"/>
 </g>
</svg>
