<?xml version="1.0" encoding="UTF-8"?>
<!DOCTYPE svg PUBLIC "-//W3C//DTD SVG 1.1//EN" "http://www.w3.org/Graphics/SVG/1.1/DTD/svg11.dtd">
<!-- Creator: CorelDRAW 2021 (64-Bit) -->
<svg xmlns="http://www.w3.org/2000/svg" xml:space="preserve" width="101.6mm" height="110.067mm" version="1.1" style="shape-rendering:geometricPrecision; text-rendering:geometricPrecision; image-rendering:optimizeQuality; fill-rule:evenodd; clip-rule:evenodd"
viewBox="0 0 10160 11006.66"
 xmlns:xlink="http://www.w3.org/1999/xlink"
 xmlns:xodm="http://www.corel.com/coreldraw/odm/2003">
 <defs>
  <style type="text/css">
   <![CDATA[
    .fil0 {fill:white}
    .fil2 {fill:#0AC8DB;fill-opacity:0.301961}
    .fil9 {fill:white;fill-opacity:0.301961}
    .fil13 {fill:white}
    .fil1 {fill:url(#id0)}
    .fil10 {fill:url(#id1)}
    .fil3 {fill:url(#id2)}
    .fil14 {fill:url(#id3)}
    .fil11 {fill:url(#id4);fill-opacity:0.501961}
    .fil7 {fill:url(#id5);fill-opacity:0.701961}
    .fil5 {fill:url(#id6);fill-opacity:0.701961}
    .fil6 {fill:url(#id7);fill-opacity:0.701961}
    .fil8 {fill:url(#id8)}
    .fil4 {fill:url(#id9)}
    .fil12 {fill:url(#id10)}
    .fil15 {fill:url(#id11)}
   ]]>
  </style>
  <linearGradient id="id0" gradientUnits="userSpaceOnUse" x1="12940.19" y1="4957" x2="7772.44" y2="4651.2">
   <stop offset="0" style="stop-opacity:1; stop-color:#83E127"/>
   <stop offset="0.231373" style="stop-opacity:1; stop-color:#01A582"/>
   <stop offset="0.729412" style="stop-opacity:1; stop-color:#01547E"/>
   <stop offset="1" style="stop-opacity:1; stop-color:#042244"/>
  </linearGradient>
  <linearGradient id="id1" gradientUnits="userSpaceOnUse" xlink:href="#id0" x1="7212.14" y1="5506.1" x2="12379.89" y2="5811.9">
  </linearGradient>
  <linearGradient id="id2" gradientUnits="objectBoundingBox" xlink:href="#id0" x1="0%" y1="22.124%" x2="121.522%" y2="121.779%">
  </linearGradient>
  <linearGradient id="id3" gradientUnits="userSpaceOnUse" xlink:href="#id0" x1="8439.7" y1="958.45" x2="5711.15" y2="-641.37">
  </linearGradient>
  <linearGradient id="id4" gradientUnits="objectBoundingBox" xlink:href="#id0" x1="0%" y1="52.9853%" x2="101.576%" y2="109.338%">
  </linearGradient>
  <linearGradient id="id5" gradientUnits="userSpaceOnUse" xlink:href="#id0" x1="3841.12" y1="7203.02" x2="3989.31" y2="7266.76">
  </linearGradient>
  <linearGradient id="id6" gradientUnits="userSpaceOnUse" xlink:href="#id0" x1="4198.25" y1="6909.29" x2="4448.97" y2="7017.14">
  </linearGradient>
  <linearGradient id="id7" gradientUnits="objectBoundingBox" xlink:href="#id0" x1="0%" y1="52.9848%" x2="101.567%" y2="109.328%">
  </linearGradient>
  <linearGradient id="id8" gradientUnits="userSpaceOnUse" xlink:href="#id0" x1="1511.04" y1="7300.21" x2="-581.23" y2="8211.91">
  </linearGradient>
  <linearGradient id="id9" gradientUnits="userSpaceOnUse" xlink:href="#id0" x1="2422.98" y1="6237.54" x2="3104.73" y2="6530.8">
  </linearGradient>
  <linearGradient id="id10" gradientUnits="userSpaceOnUse" xlink:href="#id0" x1="3620.37" y1="-586.67" x2="-3852.78" y2="2396.97">
  </linearGradient>
  <linearGradient id="id11" gradientUnits="userSpaceOnUse" xlink:href="#id0" x1="13907.67" y1="3718.93" x2="7994.89" y2="714.73">
  </linearGradient>
 </defs>
 <g id="Слой_x0020_1">
  <metadata id="CorelCorpID_0Corel-Layer"/>
  <g id="_2231468167472">
   <rect class="fil0" width="10160" height="11006.66"/>
   <path class="fil1" d="M9286.32 3847.52c-231.48,205.59 -276.73,576.07 -101.07,827.51 152.98,218.97 113.59,541.64 -88.01,720.68 -99.38,88.28 -219.64,125.12 -334.37,113.59l-11.94 75.29c132.77,14.33 272.26,-27.86 387.38,-130.11 231.47,-205.57 276.73,-576.06 101.06,-827.52 -152.97,-218.94 -113.58,-541.62 88.02,-720.65l-41.07 -58.79 41.07 58.78c201.58,-179.04 489.04,-146.66 642.01,72.28 51.65,73.93 116.65,129.31 188.56,165.47l0 -85.96c-50.79,-30.93 -96.71,-73.56 -134.44,-127.57 -175.67,-251.43 -505.72,-288.59 -737.2,-83z"/>
   <path class="fil2" d="M10157.96 714.73l-10158.69 0c0,0 6035.85,648.87 10158.69,3484.97l0 -3484.97z"/>
   <path class="fil3" d="M2802.21 4889.7c143.67,274.25 492.29,407.55 778.68,297.75 249.41,-95.63 553.05,20.44 678.16,259.29 61.69,117.74 68.43,243.34 29.56,351.89l70.18 29.76c45.94,-125.39 38.65,-270.94 -32.8,-407.33 -143.65,-274.23 -492.27,-407.54 -778.69,-297.73 -249.38,95.62 -553.02,-20.46 -678.12,-259.3l-66.97 25.67 66.96 -25.67c-125.12,-238.82 -24.34,-509.98 225.04,-605.6 26.45,-10.14 51.44,-22.01 74.91,-35.4l-171.3 0c-239.78,128.64 -328.26,413.46 -195.61,666.67z"/>
   <path class="fil4" d="M2835.1 5961.81c143.69,-0.68 260.73,115.26 261.42,258.96 0.68,143.69 -115.26,260.73 -258.96,261.42 -143.69,0.68 -260.73,-115.26 -261.42,-258.95 -0.68,-143.7 115.26,-260.74 258.96,-261.43z"/>
   <path class="fil2" d="M-0 458.8l1.31 6969.94c-5.31,-5.47 116.58,-417.02 389.42,-1055.68 637.57,-1492.39 2099.5,-4224.96 4689.27,-5914.26l-5080 0z"/>
   <circle class="fil0" transform="matrix(-0.0207046 9.82419E-05 9.82419E-05 0.0207046 253.71 3203.55)" r="7106.25"/>
   <path class="fil2" d="M-0 7428.74l10158.69 0c0,0 -6035.85,-648.87 -10158.69,-3484.97l0 3484.97z"/>
   <path class="fil0" d="M0.88 2842.48c193.04,-116.85 457.86,-104.67 636.8,42.24 208.4,171.07 221.41,460.05 29.09,645.42 -220.83,212.86 -205.87,544.65 33.43,741.09 239.29,196.44 612.29,183.14 833.13,-29.72 192.31,-185.37 517.18,-196.97 725.57,-25.9 208.39,171.08 221.41,460.05 29.09,645.42 -220.83,212.86 -205.87,544.66 33.42,741.1l51.63 -49.76c-208.39,-171.07 -221.41,-460.05 -29.11,-645.41 220.86,-212.87 205.88,-544.67 -33.41,-741.11 -239.29,-196.44 -612.29,-183.14 -833.14,29.74 -192.31,185.36 -517.16,196.96 -725.56,25.89 -208.39,-171.08 -221.41,-460.05 -29.11,-645.41 220.86,-212.88 205.89,-544.67 -33.41,-741.11 -192.54,-158.07 -471.65,-180.29 -688.42,-72.05l0 79.57z"/>
   <path class="fil5" d="M4349.81 6807.9c52.84,-0.26 95.88,42.38 96.13,95.23 0.26,52.84 -42.38,95.88 -95.23,96.13 -52.84,0.26 -95.88,-42.38 -96.13,-95.23 -0.26,-52.84 42.38,-95.88 95.23,-96.13z"/>
   <path class="fil6" d="M4497.31 6494.25c31.24,-0.14 56.68,25.06 56.83,56.29 0.15,31.24 -25.06,56.68 -56.29,56.83 -31.24,0.15 -56.68,-25.06 -56.83,-56.29 -0.14,-31.24 25.06,-56.68 56.29,-56.83z"/>
   <path class="fil7" d="M3930.7 7143.08c31.24,-0.14 56.68,25.06 56.83,56.29 0.15,31.24 -25.06,56.68 -56.29,56.83 -31.24,0.15 -56.68,-25.06 -56.83,-56.29 -0.14,-31.24 25.06,-56.68 56.29,-56.83z"/>
   <path class="fil6" d="M1678.18 7194.56c31.24,-0.14 56.68,25.06 56.83,56.29 0.15,31.24 -25.06,56.68 -56.29,56.83 -31.24,0.15 -56.68,-25.06 -56.83,-56.29 -0.14,-31.24 25.06,-56.68 56.29,-56.83z"/>
   <path class="fil6" d="M188.79 3756.47c31.24,-0.14 56.68,25.06 56.83,56.29 0.15,31.24 -25.06,56.68 -56.29,56.83 -31.24,0.15 -56.68,-25.06 -56.83,-56.29 -0.14,-31.24 25.06,-56.68 56.29,-56.83z"/>
   <path class="fil0" d="M1964.76 7171.89c239.29,196.44 612.29,183.14 833.13,-29.72 192.32,-185.37 517.18,-196.98 725.57,-25.9 102.75,84.34 157.96,197.35 164.53,312.47l76.23 0c-6.63,-133.37 -70.13,-264.54 -189.14,-362.23 -239.28,-196.44 -612.28,-183.14 -833.14,29.73 -192.3,185.36 -517.16,196.97 -725.55,25.89l-51.63 49.76 51.62 -49.76c-208.39,-171.07 -221.41,-460.05 -29.11,-645.41 220.86,-212.87 205.89,-544.67 -33.41,-741.11 -239.29,-196.44 -612.28,-183.14 -833.14,29.74 -192.3,185.36 -517.16,196.96 -725.56,25.89 -208.39,-171.08 -221.41,-460.05 -29.1,-645.41 220.85,-212.88 205.88,-544.67 -33.41,-741.11 -95.38,-78.3 -212,-123.25 -331.77,-135.54l0 68.23c101.21,11.96 199.41,50.8 280.14,117.07 208.4,171.07 221.41,460.05 29.1,645.42 -220.84,212.86 -205.88,544.65 33.42,741.09 239.29,196.44 612.3,183.14 833.13,-29.72 192.31,-185.37 517.18,-196.97 725.57,-25.9 208.39,171.08 221.41,460.05 29.09,645.42 -220.83,212.86 -205.87,544.66 33.43,741.1z"/>
   <circle class="fil0" transform="matrix(-0.0366136 0.000173729 0.000173729 0.0366136 1008.57 7375.58)" r="7106.25"/>
   <path class="fil8" d="M235.92 6458.21c187.14,-0.9 359.53,62.55 496.29,169.55l-583.47 -164.43c28.63,-3.24 57.72,-4.98 87.18,-5.12zm598.63 265.08c24.25,26.93 46.68,55.53 67.13,85.59l-901.48 -254.05 0 -60.13c3.7,-1.16 7.41,-2.3 11.14,-3.41l823.21 232zm115.04 165.78c12.92,24.78 24.6,50.3 34.91,76.53l-984.3 -277.41 0 -66.67 949.39 267.55zm59.83 150.23c6.65,23.38 12.27,47.2 16.78,71.42l-1026 -289.16 0 -66.68 1009.22 284.42zm26.6 140.87c2.17,22.33 3.47,44.9 3.76,67.74l-1039.58 -292.98 0 -66.68 1035.82 291.92zm1.99 133.92c-1.5,21.81 -3.88,43.39 -7.1,64.69l-1030.71 -290.48 0 -66.68 1037.81 292.47zm-303.03 114.65l-734.78 -207.08 0 -66.68 971.37 273.76 -236.59 0zm-473.24 0l-261.54 -73.71 0 -66.68 498.14 140.39 -236.6 0zm-261.54 -7.03l24.93 7.03 -24.93 0 0 -7.03z"/>
   <circle class="fil0" transform="matrix(-0.0134649 6.389E-05 6.389E-05 0.0134649 1326.13 6810.83)" r="7106.25"/>
   <path class="fil9" d="M10158.69 458.8l1.31 1916.21c0,0 -1252.07,-1916.21 -10160,-1916.21l10158.69 0z"/>
   <path class="fil10" d="M10157.96 6451.48c-180.59,-221.3 -491.3,-246.21 -712.23,-49.99 -231.48,205.59 -276.73,576.06 -101.05,827.53 152.97,218.94 113.57,541.62 -88.02,720.66 -201.59,179.04 -489.04,146.66 -642.01,-72.29 -175.68,-251.46 -505.72,-288.61 -737.2,-83.02 -92.26,81.94 -154.92,190.09 -185.81,306.46l67.39 10.68c27.66,-98.09 81.39,-189 159.49,-258.36 201.58,-179.05 489.03,-146.66 642.01,72.3 175.67,251.44 505.71,288.6 737.19,83.01 231.48,-205.59 276.73,-576.08 101.07,-827.51 -152.98,-218.96 -113.58,-541.64 88.01,-720.68 201.59,-179.04 489.04,-146.66 642.01,72.31 9.29,13.29 19.04,25.95 29.15,38.04l0 -119.14z"/>
   <path class="fil2" d="M10158.69 7428.74l-1.31 -6969.94c5.31,5.47 -116.58,417.02 -389.42,1055.68 -637.57,1492.39 -2099.5,4224.96 -4689.27,5914.26l5080 0z"/>
   <path class="fil11" d="M4368.05 1161.5c143.69,-0.68 260.73,115.26 261.42,258.96 0.68,143.69 -115.26,260.73 -258.96,261.42 -143.69,0.68 -260.73,-115.26 -261.42,-258.95 -0.68,-143.7 115.26,-260.74 258.96,-261.43z"/>
   <path class="fil11" d="M2878.43 906.27c81.26,-0.39 147.45,65.17 147.83,146.43 0.39,81.26 -65.17,147.45 -146.43,147.83 -81.26,0.39 -147.45,-65.17 -147.83,-146.43 -0.39,-81.26 65.17,-147.45 146.43,-147.83z"/>
   <path class="fil12" d="M703.2 2429.95c293.12,1.39 566.34,-83.95 795.48,-231.87l-821.51 231.51c8.66,0.19 17.34,0.31 26.03,0.36zm941.99 -339.95c36.17,-30.33 70.85,-62.4 103.91,-96.07l-1393.15 392.62c45.52,11.38 91.9,20.62 139.02,27.6l1150.22 -324.15zm184.97 -185.7c22.96,-27.6 44.92,-56.06 65.82,-85.33l-1756.27 494.95c32.87,14.02 66.37,26.87 100.43,38.48l1590.02 -448.1zm120.39 -167.49c16.06,-26.04 31.34,-52.6 45.77,-79.69l-1996.12 562.55 0 25.7c16.58,9.28 33.37,18.25 50.35,26.89l1900 -535.45zm84.21 -157.31c11.42,-24.91 22.16,-50.2 32.18,-75.85l-2066.74 582.45 0 66.79 2034.56 -573.39zm58.89 -150.16c7.94,-24.05 15.31,-48.37 22,-72.98l-2115.45 596.18 0 66.78 2093.45 -589.98zm39.57 -144.72c5.1,-23.33 9.66,-46.87 13.61,-70.61l-2146.63 604.96 0 66.78 2133.02 -601.13zm23.45 -140.18c2.67,-22.71 4.82,-45.57 6.43,-68.59l-2162.9 609.55 0 66.79 2156.47 -607.75zm9.6 -136.27c0.24,-9.3 0.45,-18.61 0.49,-27.96 0.06,-13 -0.05,-25.95 -0.33,-38.87l-2166.23 610.49 0 66.78 2166.07 -610.44zm-2.73 -132.8c-1.46,-21.85 -3.39,-43.57 -5.8,-65.15l-2157.54 608.04 0 66.79 2163.34 -609.68zm-14.43 -129.5c-1.63,-10.41 -3.38,-20.79 -5.24,-31.14l-121.23 0 -2022.44 569.96 0 66.78 2148.91 -605.6zm-600.41 -31.14l-1548.5 436.4 0 66.78 1785.46 -503.18 -236.96 0zm-473.96 0l-1074.54 302.83 0 66.78 1311.51 -369.61 -236.97 0zm-473.95 0l-600.59 169.26 0 66.78 837.57 -236.04 -236.98 0zm-473.95 0l-126.64 35.69 0 66.78 363.62 -102.47 -236.98 0z"/>
   <path class="fil0" d="M2337.68 714.73c-10.7,133.29 -121.92,238.44 -258.1,239.09 -137.01,0.65 -249.78,-104.73 -260.58,-239.09l518.68 0z"/>
   <circle class="fil0" transform="matrix(-0.0134649 6.389E-05 6.389E-05 0.0134649 3627.68 945.15)" r="7106.25"/>
   <path class="fil13" d="M7325.5 6500.78c-187.14,-0.9 -359.53,62.55 -496.29,169.55l583.47 -164.43c-28.63,-3.24 -57.72,-4.98 -87.18,-5.12zm-598.63 265.08c-24.25,26.93 -46.68,55.53 -67.13,85.59l992.08 -279.58c-32.79,-14.88 -66.76,-27.61 -101.74,-38.01l-823.21 232zm-115.04 165.78c-12.92,24.78 -24.6,50.3 -34.91,76.53l1226.95 -345.79c-22.29,-16.86 -45.5,-32.59 -69.53,-47.08l-1122.51 316.34zm-59.83 150.23c-6.65,23.38 -12.27,47.2 -16.78,71.42l1379.97 -388.91c-16.41,-18.16 -33.65,-35.55 -51.65,-52.13l-1311.54 369.62zm-26.6 140.87c-2.17,22.33 -3.47,44.9 -3.76,67.74l1476.97 -416.24c-12.1,-19.17 -25.01,-37.77 -38.65,-55.79l-1434.56 404.29zm-1.99 133.92c1.5,21.81 3.88,43.39 7.1,64.69l1528.81 -430.85c-8.46,-20.06 -17.72,-39.69 -27.73,-58.87l-1508.18 425.03zm454.08 72.08l1122.02 -316.21c-5.05,-20.9 -10.94,-41.49 -17.6,-61.72l-1341.01 377.93 236.59 0zm473.24 0l668.87 -188.5c-1.64,-21.77 -4.18,-43.3 -7.54,-64.55l-897.92 253.05 236.59 0zm473.22 0l194.66 -54.86c2.02,-22.28 3.12,-44.82 3.27,-67.6l-434.53 122.46 236.6 0z"/>
   <path class="fil0" d="M10029.16 4552.06c55.18,-0.26 103.41,29.9 128.8,74.72l0 144.84c-25.15,44.39 -72.72,74.44 -127.4,74.7 -81.26,0.39 -147.45,-65.17 -147.83,-146.43 -0.39,-81.26 65.17,-147.45 146.43,-147.83z"/>
   <circle class="fil0" transform="matrix(-0.0334391 0.000158667 0.000158667 0.0334391 9858.39 5639.39)" r="7106.25"/>
   <path class="fil3" d="M4138.86 666.67c143.67,274.25 492.29,407.55 778.68,297.75 249.41,-95.63 553.05,20.44 678.16,259.29 61.69,117.74 68.43,243.34 29.56,351.89l70.18 29.76c45.94,-125.39 38.65,-270.94 -32.8,-407.33 -143.65,-274.23 -492.27,-407.54 -778.69,-297.73 -249.38,95.62 -553.02,-20.46 -678.12,-259.3l-66.97 25.67 66.96 -25.67c-125.12,-238.82 -24.34,-509.98 225.04,-605.6 26.45,-10.14 51.44,-22.01 74.91,-35.4l-171.3 0c-239.78,128.64 -328.26,413.46 -195.61,666.67z"/>
   <path class="fil14" d="M7651.16 646.95c-143.67,-274.25 -492.29,-407.55 -778.68,-297.75 -249.41,95.63 -553.05,-20.44 -678.16,-259.29 -15.51,-29.6 -27.55,-59.71 -36.26,-89.91l-75.71 0c10.18,38.82 25.11,77.56 45.03,115.59 143.65,274.23 492.27,407.54 778.69,297.73 249.38,-95.62 553.02,20.46 678.12,259.3l66.97 -25.67 -66.96 25.67c125.12,238.82 24.34,509.98 -225.04,605.6 -84.21,32.29 -153.64,82.01 -206.08,143.07l83.42 20.74c42.27,-41.83 94.72,-76.11 156.24,-99.69 286.39,-109.82 402.08,-421.15 258.42,-695.39z"/>
   <path class="fil0" d="M5766.63 585.93c2.84,-56.02 17.27,-108.69 40.82,-155.86l721.79 39.88c17.79,48.35 26.35,100.98 23.58,155.68 -10.98,217.1 -195.85,384.23 -412.94,373.24 -217.1,-10.97 -384.23,-195.84 -373.25,-412.94z"/>
   <circle class="fil0" transform="matrix(-0.0134649 6.389E-05 6.389E-05 0.0134649 7070.68 894.6)" r="7106.25"/>
   <g>
    <path class="fil0" d="M10000.08 2360.8c56.09,-0.26 109.48,11.24 157.88,32.16l0 722.89c-47.29,20.43 -99.37,31.88 -154.14,32.13 -217.37,1.02 -394.45,-174.35 -395.46,-391.72 -1.02,-217.37 174.35,-394.45 391.72,-395.46z"/>
    <path class="fil15" d="M10160 4.68l-16.6 -4.68 16.6 0 0 4.68zm0 133.57l-490.55 -138.25 236.96 0 253.59 71.47 0 66.78zm0 133.57l-934.24 -263.29c6.78,-2.89 13.59,-5.74 20.43,-8.53l186.27 0 727.54 205.04 0 66.78zm0 133.57l-1103.73 -311.06c26.25,-15.53 53.04,-30.25 80.33,-44.14l1023.4 288.41 0 66.79zm0 133.56l-1243.71 -350.5c21.82,-16.59 44.14,-32.57 66.91,-47.93l1176.8 331.65 0 66.78zm0 133.57l-1362.06 -383.86c18.48,-17.41 37.43,-34.33 56.8,-50.77l1305.26 367.85 0 66.78zm0 133.56l-1463.06 -412.31c15.74,-18.1 31.92,-35.81 48.53,-53.11l1414.53 398.64 0 66.78zm0 133.57l-1549.32 -436.63c13.37,-18.71 27.18,-37.07 41.42,-55.11l1507.9 424.96 0 66.78zm0 133.58l-1622.46 -457.25c11.24,-19.25 22.92,-38.23 35,-56.91l1587.46 447.37 0 66.79zm0 133.56l-1683.52 -474.45c9.26,-19.78 19,-39.29 29.11,-58.58l1654.41 466.25 0 66.78zm0 133.57l-1733.16 -488.44c7.36,-20.28 15.21,-40.33 23.45,-60.17l1709.71 481.83 0 66.78zm0 133.57l-1771.7 -499.3c5.51,-20.77 11.49,-41.35 17.89,-61.74l1753.81 494.26 0 66.78zm0 133.57l-1799.16 -507.04c3.66,-21.27 7.78,-42.37 12.35,-63.3l1786.81 503.55 0 66.79zm0 133.57l-1815.54 -511.66c1.77,-21.77 4.05,-43.38 6.79,-64.87l1808.75 509.74 0 66.79zm0 133.56l-1820.44 -513.03 -0.04 -5.54c-0.09,-20.43 0.32,-40.73 1.08,-60.95l1819.4 512.74 0 66.78zm0 133.57l-1813.04 -510.95c-2.28,-22.6 -4.05,-45.37 -5.29,-68.28l1818.33 512.44 0 66.79zm0 133.57l-1792.08 -505.05c-4.66,-23.22 -8.75,-46.63 -12.28,-70.24l1804.36 508.5 0 66.79zm0 133.57l-1755.5 -494.73c-7.41,-23.93 -14.22,-48.11 -20.41,-72.54l1775.91 500.49 0 66.78zm0 133.56l-1700.14 -479.13c-10.77,-24.75 -20.88,-49.87 -30.29,-75.32l1730.43 487.67 0 66.78zm0 133.58l-1620.77 -456.77c-15.16,-25.81 -29.54,-52.14 -43.13,-78.93l1663.9 468.91 0 66.79zm0 133.56l-1507.64 -424.88c-21.55,-27.29 -42.14,-55.36 -61.72,-84.18l1569.36 442.28 0 66.78zm0 83.91c-32.52,8.38 -65.48,15.66 -98.86,21.8l-1238.48 -349.03c-33.06,-29.72 -64.75,-60.95 -94.96,-93.54l1432.3 403.64 0 17.13zm-263.1 42.3c-31.02,2.11 -62.29,3.39 -93.82,3.54 -317.5,1.51 -611.72,-98.75 -851.86,-270.05l945.68 266.51z"/>
   </g>
  </g>
 </g>
</svg>
