<?xml version="1.0" encoding="UTF-8"?>
<!DOCTYPE svg PUBLIC "-//W3C//DTD SVG 1.1//EN" "http://www.w3.org/Graphics/SVG/1.1/DTD/svg11.dtd">
<!-- Creator: CorelDRAW 2021 (64-Bit) -->
<svg xmlns="http://www.w3.org/2000/svg" xml:space="preserve" width="101.6mm" height="110.067mm" version="1.1" style="shape-rendering:geometricPrecision; text-rendering:geometricPrecision; image-rendering:optimizeQuality; fill-rule:evenodd; clip-rule:evenodd"
viewBox="0 0 10160 11006.66"
 xmlns:xlink="http://www.w3.org/1999/xlink"
 xmlns:xodm="http://www.corel.com/coreldraw/odm/2003">
 <defs>
  <style type="text/css">
   <![CDATA[
    .fil9 {fill:none}
    .fil0 {fill:white}
    .fil10 {fill:#0AC8DB;fill-opacity:0.301961}
    .fil15 {fill:white;fill-opacity:0.301961}
    .fil13 {fill:white}
    .fil2 {fill:url(#id0)}
    .fil17 {fill:url(#id1)}
    .fil6 {fill:url(#id2)}
    .fil20 {fill:url(#id3)}
    .fil18 {fill:url(#id4)}
    .fil11 {fill:url(#id5)}
    .fil7 {fill:url(#id6)}
    .fil5 {fill:url(#id7)}
    .fil21 {fill:url(#id8)}
    .fil19 {fill:url(#id9)}
    .fil1 {fill:url(#id10)}
    .fil12 {fill:url(#id11)}
    .fil8 {fill:url(#id12)}
    .fil3 {fill:url(#id13)}
    .fil4 {fill:url(#id14)}
    .fil22 {fill:url(#id15)}
    .fil16 {fill:url(#id16)}
    .fil14 {fill:url(#id17)}
   ]]>
  </style>
  <linearGradient id="id0" gradientUnits="userSpaceOnUse" x1="2694.73" y1="5499.85" x2="-2065.55" y2="-907.02">
   <stop offset="0" style="stop-opacity:1; stop-color:#83E127"/>
   <stop offset="0.231373" style="stop-opacity:1; stop-color:#01A582"/>
   <stop offset="0.729412" style="stop-opacity:1; stop-color:#01547E"/>
   <stop offset="1" style="stop-opacity:1; stop-color:#042244"/>
  </linearGradient>
  <linearGradient id="id1" gradientUnits="userSpaceOnUse" xlink:href="#id0" x1="11956.96" y1="5479.65" x2="7196.68" y2="-927.22">
  </linearGradient>
  <linearGradient id="id2" gradientUnits="userSpaceOnUse" xlink:href="#id0" x1="7998.62" y1="7244.87" x2="10991.78" y2="8549.13">
  </linearGradient>
  <linearGradient id="id3" gradientUnits="userSpaceOnUse" xlink:href="#id0" x1="9749.46" y1="814.48" x2="10291.03" y2="581.52">
  </linearGradient>
  <linearGradient id="id4" gradientUnits="userSpaceOnUse" xlink:href="#id0" x1="785.83" y1="4475.29" x2="1523.06" y2="4792.41">
  </linearGradient>
  <linearGradient id="id5" gradientUnits="userSpaceOnUse" xlink:href="#id0" x1="2764.03" y1="6994.27" x2="3149.56" y2="6828.44">
  </linearGradient>
  <linearGradient id="id6" gradientUnits="userSpaceOnUse" xlink:href="#id0" x1="6195.73" y1="7206.96" x2="11924.26" y2="9671.11">
  </linearGradient>
  <linearGradient id="id7" gradientUnits="userSpaceOnUse" xlink:href="#id0" x1="7583.56" y1="3766.73" x2="8265.31" y2="4059.99">
  </linearGradient>
  <linearGradient id="id8" gradientUnits="userSpaceOnUse" xlink:href="#id0" x1="9045.34" y1="1009.82" x2="9314.46" y2="894.06">
  </linearGradient>
  <linearGradient id="id9" gradientUnits="userSpaceOnUse" xlink:href="#id0" x1="5576.63" y1="7322.35" x2="6258.38" y2="7029.09">
  </linearGradient>
  <linearGradient id="id10" gradientUnits="userSpaceOnUse" xlink:href="#id0" x1="6508.13" y1="740.31" x2="7548.36" y2="1187.77">
  </linearGradient>
  <linearGradient id="id11" gradientUnits="userSpaceOnUse" xlink:href="#id0" x1="3955.92" y1="6706.24" x2="4637.67" y2="6412.98">
  </linearGradient>
  <linearGradient id="id12" gradientUnits="userSpaceOnUse" xlink:href="#id0" x1="3620.36" y1="8730.14" x2="-3852.79" y2="5746.5">
  </linearGradient>
  <linearGradient id="id13" gradientUnits="objectBoundingBox" xlink:href="#id0" x1="0%" y1="52.9856%" x2="101.578%" y2="109.34%">
  </linearGradient>
  <linearGradient id="id14" gradientUnits="userSpaceOnUse" xlink:href="#id0" x1="1640.55" y1="3738.66" x2="2291.67" y2="3458.58">
  </linearGradient>
  <linearGradient id="id15" gradientUnits="userSpaceOnUse" xlink:href="#id0" x1="2595.01" y1="769.99" x2="3481.14" y2="1151.17">
  </linearGradient>
  <linearGradient id="id16" gradientUnits="userSpaceOnUse" xlink:href="#id0" x1="4997.79" y1="833.72" x2="7090.06" y2="-77.98">
  </linearGradient>
  <linearGradient id="id17" gradientUnits="userSpaceOnUse" xlink:href="#id0" x1="724.36" y1="912.63" x2="1406.11" y2="1205.89">
  </linearGradient>
 </defs>
 <g id="Слой_x0020_1">
  <metadata id="CorelCorpID_0Corel-Layer"/>
  <g id="_2078725364864">
   <rect class="fil0" width="10160" height="11006.66"/>
   <path class="fil1" d="M7535.82 714.73c1.05,219.25 -175.85,397.83 -395.11,398.87 -219.25,1.05 -397.83,-175.85 -398.87,-395.11l0.03 -3.76 99.39 0 -0.03 3.29c0.78,164.36 134.65,296.97 299.01,296.19 164.36,-0.78 296.97,-134.65 296.19,-299.01l-0.01 -0.47 99.4 0z"/>
   <path class="fil2" d="M1.04 3010.23c276.81,258.62 348.33,707.1 154,1040.92 -42.75,73.45 -95.04,135.61 -154,185.93l0 143.59c94.56,-64.57 177.75,-152.88 242.1,-263.44 237.7,-408.34 129.02,-966.07 -242.1,-1250.54l0 143.54zm0 -1481.18c222.17,-143.87 512.16,-140.41 747.33,35.99 376.91,282.74 876.36,178.73 1115.6,-232.27 109.48,-188.09 145.45,-407.86 116.17,-618.04l-105.1 0c29.04,187.17 -1.45,384.07 -99.18,551.96 -208.35,357.92 -643.34,448.47 -971.55,202.27 -251.09,-188.34 -556.57,-204.98 -803.27,-73.61l0 133.7z"/>
   <path class="fil3" d="M6596.26 3862.22c220.81,-1.05 400.66,177.1 401.7,397.91 1.05,220.81 -177.1,400.66 -397.91,401.7 -220.8,1.05 -400.65,-177.1 -401.7,-397.91 -1.05,-220.8 177.1,-400.65 397.91,-401.7zm0.47 100.1c165.53,-0.78 300.35,132.76 301.14,298.28 0.78,165.53 -132.77,300.35 -298.29,301.14 -165.52,0.78 -300.34,-132.77 -301.13,-298.29 -0.78,-165.52 132.76,-300.34 298.28,-301.13z"/>
   <path class="fil3" d="M3605.23 3484.59c220.81,-1.05 400.66,177.1 401.7,397.91 1.05,220.81 -177.1,400.66 -397.91,401.7 -220.8,1.05 -400.65,-177.1 -401.7,-397.91 -1.05,-220.8 177.1,-400.65 397.91,-401.7zm0.47 100.1c165.53,-0.78 300.35,132.76 301.14,298.28 0.78,165.53 -132.77,300.35 -298.29,301.14 -165.52,0.78 -300.34,-132.77 -301.13,-298.29 -0.78,-165.52 132.76,-300.34 298.28,-301.13z"/>
   <path class="fil4" d="M2034.15 4002c137.24,0.65 249.03,-110.08 249.68,-247.32 0.65,-137.24 -110.08,-249.03 -247.32,-249.68 -137.24,-0.65 -249.02,110.08 -249.68,247.32 -0.65,137.24 110.08,249.02 247.32,249.68z"/>
   <path class="fil5" d="M7995.68 3491c143.69,-0.68 260.73,115.26 261.42,258.96 0.68,143.69 -115.26,260.73 -258.96,261.42 -143.69,0.68 -260.73,-115.26 -261.42,-258.95 -0.68,-143.7 115.26,-260.74 258.96,-261.43z"/>
   <path class="fil6" d="M9822.78 6040.31c-267.72,-1.28 -514.34,89.49 -709.98,242.56l834.7 -235.23c-40.96,-4.64 -82.57,-7.13 -124.72,-7.33zm-856.39 379.22c-34.69,38.53 -66.78,79.44 -96.03,122.45l1289.64 -363.44 0 -86.02c-5.29,-1.66 -10.6,-3.29 -15.94,-4.88l-1177.67 331.89zm-164.57 237.17c-18.49,35.45 -35.2,71.95 -49.94,109.48l1408.12 -396.86 0 -95.38 -1358.18 382.76zm-85.6 214.91c-9.51,33.45 -17.55,67.53 -24,102.18l1467.78 -413.67 0 -95.39 -1443.78 406.88zm-38.05 201.53c-3.1,31.94 -4.96,64.23 -5.38,96.91l1487.21 -419.14 0 -95.39 -1481.83 417.62zm-2.85 191.58c2.15,31.2 5.56,62.08 10.16,92.55l1474.52 -415.56 0 -95.39 -1484.68 418.4zm433.51 164.02l1051.17 -296.25 0 -95.39 -1389.63 391.64 338.46 0zm677.01 0l374.16 -105.45 0 -95.39 -712.63 200.84 338.47 0zm374.16 -10.06l-35.66 10.06 35.66 0 0 -10.06z"/>
   <path class="fil7" d="M9658.63 4890.17c172.43,-0.82 340.27,18.43 501.37,55.41l0 566.87c-157.41,-49.38 -324.98,-75.73 -498.78,-74.91 -905.12,4.31 -1635.38,741.55 -1631.1,1646.66 0.56,118.26 13.75,233.5 38.08,344.54l-557.12 0c-18.05,-111.39 -27.78,-225.56 -28.33,-341.95 -5.71,-1207.41 968.45,-2190.88 2175.88,-2196.62z"/>
   <path class="fil8" d="M703.19 5713.52c293.12,-1.39 566.34,83.95 795.48,231.87l-821.51 -231.51c8.66,-0.19 17.34,-0.31 26.03,-0.36zm941.99 339.95c36.17,30.33 70.85,62.4 103.91,96.07l-1393.15 -392.62c45.52,-11.38 91.9,-20.62 139.02,-27.6l1150.22 324.15zm184.97 185.7c22.96,27.6 44.92,56.06 65.82,85.33l-1756.27 -494.95c32.87,-14.02 66.37,-26.87 100.43,-38.48l1590.02 448.1zm120.39 167.49c16.06,26.04 31.34,52.6 45.77,79.69l-1996.12 -562.55 0 -25.7c16.58,-9.28 33.37,-18.25 50.35,-26.89l1900 535.45zm84.21 157.31c11.42,24.91 22.16,50.2 32.18,75.85l-2066.74 -582.45 0 -66.79 2034.56 573.39zm58.89 150.16c7.94,24.05 15.31,48.37 22,72.98l-2115.45 -596.18 0 -66.78 2093.45 589.98zm39.57 144.72c5.1,23.33 9.66,46.87 13.61,70.61l-2146.63 -604.96 0 -66.78 2133.02 601.13zm23.45 140.18c2.67,22.71 4.82,45.57 6.43,68.59l-2162.9 -609.55 0 -66.79 2156.47 607.75zm9.6 136.27c0.24,9.3 0.45,18.61 0.49,27.96 0.06,13 -0.05,25.95 -0.33,38.87l-2166.23 -610.49 0 -66.78 2166.07 610.44zm-2.73 132.8c-1.46,21.85 -3.39,43.57 -5.8,65.15l-2157.54 -608.04 0 -66.79 2163.34 609.68zm-14.43 129.5c-1.63,10.41 -3.38,20.79 -5.24,31.14l-121.23 0 -2022.44 -569.96 0 -66.78 2148.91 605.6zm-600.41 31.14l-1548.5 -436.4 0 -66.78 1785.46 503.18 -236.96 0zm-473.96 0l-1074.54 -302.83 0 -66.78 1311.51 369.61 -236.97 0zm-473.95 0l-600.59 -169.26 0 -66.78 837.57 236.04 -236.98 0zm-473.95 0l-126.64 -35.69 0 -66.78 363.62 102.47 -236.98 0z"/>
   <path class="fil9" d="M-0 7428.74l1.26 -6714.01 29.89 0c655.43,5292.14 5128.39,6488.19 7906.63,6714.01"/>
   <path class="fil10" d="M10160 7428.74l-1.26 -6714.01 -54.5 0c-244.82,1067.64 -1400.05,5188.49 -5088.74,6714.01l5144.5 0z"/>
   <path class="fil10" d="M-0 714.73l10158.69 0c0,0 -6035.85,0 -10158.69,3069.62l0 -3069.62z"/>
   <path class="fil11" d="M2997.08 7150.19c81.26,0.39 147.45,-65.17 147.83,-146.43 0.39,-81.26 -65.17,-147.45 -146.43,-147.83 -81.26,-0.39 -147.45,65.17 -147.83,146.43 -0.39,81.26 65.17,147.45 146.43,147.83z"/>
   <path class="fil0" d="M2337.67 7428.74c-10.7,-133.29 -121.92,-238.44 -258.1,-239.09 -137.01,-0.65 -249.78,104.73 -260.58,239.09l518.68 0z"/>
   <path class="fil12" d="M4368.04 6981.97c143.69,0.68 260.73,-115.26 261.42,-258.96 0.68,-143.69 -115.26,-260.73 -258.96,-261.42 -143.69,-0.68 -260.73,115.26 -261.42,258.95 -0.68,143.7 115.26,260.74 258.96,261.43z"/>
   <path class="fil13" d="M5193.17 6182.14c187.14,-0.9 359.53,62.55 496.29,169.55l-583.47 -164.43c28.63,-3.24 57.72,-4.98 87.18,-5.12zm598.63 265.08c24.25,26.93 46.68,55.53 67.13,85.59l-992.08 -279.58c32.79,-14.88 66.76,-27.61 101.74,-38.01l823.21 232zm115.04 165.78c12.92,24.78 24.6,50.3 34.91,76.53l-1226.95 -345.79c22.29,-16.86 45.5,-32.59 69.53,-47.08l1122.51 316.34zm59.83 150.23c6.65,23.38 12.27,47.2 16.78,71.42l-1379.97 -388.91c16.41,-18.16 33.65,-35.55 51.65,-52.13l1311.54 369.62zm26.6 140.87c2.17,22.33 3.47,44.9 3.76,67.74l-1476.97 -416.24c12.1,-19.17 25.01,-37.77 38.65,-55.79l1434.56 404.29zm1.99 133.92c-1.5,21.81 -3.88,43.39 -7.1,64.69l-1528.81 -430.85c8.46,-20.06 17.72,-39.69 27.73,-58.87l1508.18 425.03zm-19.28 127.94c-4.93,20.93 -10.66,41.56 -17.2,61.83l-1539.62 -433.9c5.05,-20.9 10.94,-41.49 17.6,-61.72l1539.22 433.79zm-39.41 122.26c-8.33,20.08 -17.44,39.75 -27.31,58.98l-1510.19 -425.6c1.64,-21.77 4.18,-43.3 7.54,-64.55l1529.96 431.17zm-59.92 116.48c-5.05,8.11 -10.25,16.12 -15.58,24.04l-135.71 0 -1325.3 -373.5c-2.02,-22.28 -3.12,-44.82 -3.27,-67.6l1479.86 417.06zm-624.52 24.04l-826.54 -232.93c-6.45,-23.33 -11.87,-47.11 -16.2,-71.25l1079.35 304.18 -236.61 0zm-473.25 0l-295.04 -83.15c-12.62,-24.7 -23.98,-50.15 -34.02,-76.27l565.68 159.42 -236.62 0zm-246.04 0l-2.19 -3.27 11.6 3.27 -9.41 0z"/>
   <path class="fil0" d="M-0 6261.61c39.01,43.85 82.44,84.1 130.12,119.87 314.19,235.68 416.65,694.51 242.08,1047.26l118.49 0c161.89,-395.88 38.83,-885.71 -304.63,-1143.36 -74.09,-55.58 -136.37,-123.6 -186.06,-199.69l0 175.92zm0 -1118.98c218.19,-316.8 627.84,-387.95 940.53,-153.4 376.91,282.74 876.36,178.73 1115.6,-232.27 239.23,-410.98 127.66,-973.3 -249.26,-1256.03 -328.19,-246.18 -425.39,-735.93 -217.05,-1093.86 208.35,-357.91 643.33,-448.47 971.53,-202.28 376.92,282.72 876.36,178.72 1115.59,-232.27 95.36,-163.81 134.94,-351.66 124.23,-536.29l-103.46 16.72c6.66,156.4 -28.17,314.82 -108.88,453.48 -208.33,357.92 -643.33,448.46 -971.54,202.28 -376.89,-282.71 -876.33,-178.72 -1115.56,232.28 -239.23,410.98 -127.66,973.33 249.22,1256.03 328.21,246.18 425.41,735.95 217.07,1093.86 -208.35,357.92 -643.34,448.47 -971.55,202.27 -322.33,-241.77 -734.3,-200.66 -996.47,73.42l0 176.06z"/>
   <path class="fil14" d="M1323.28 714.73c45.86,46.66 74.28,110.54 74.62,181.13 0.68,143.69 -115.26,260.73 -258.96,261.42 -143.69,0.68 -260.73,-115.26 -261.42,-258.95 -0.34,-71.48 28.19,-136.35 74.62,-183.6l371.14 0z"/>
   <path class="fil15" d="M9330.05 714.73l-852.79 0c-123.3,585.25 -1242.64,4860.02 -8477.26,6714.01l3044.73 0c4326.79,-1736.03 5971.83,-5073.47 6285.32,-6714.01z"/>
   <path class="fil15" d="M10158.69 714.73l-10158.69 0c0,0 7053.79,238.42 10158.69,2007.32l0 -2007.32z"/>
   <path class="fil16" d="M6272.91 1675.72c-187.14,0.9 -359.53,-62.55 -496.29,-169.55l583.47 164.43c-28.63,3.24 -57.72,4.98 -87.18,5.12zm-598.63 -265.08c-24.25,-26.93 -46.68,-55.53 -67.13,-85.59l992.08 279.58c-32.79,14.88 -66.76,27.61 -101.74,38.01l-823.21 -232zm-115.04 -165.78c-12.92,-24.78 -24.6,-50.3 -34.91,-76.53l1226.95 345.79c-22.29,16.86 -45.5,32.59 -69.53,47.08l-1122.51 -316.34zm-59.83 -150.23c-6.65,-23.38 -12.27,-47.2 -16.78,-71.42l1379.97 388.91c-16.41,18.16 -33.65,35.55 -51.65,52.13l-1311.54 -369.62zm-26.6 -140.87c-2.17,-22.33 -3.47,-44.9 -3.76,-67.74l1476.97 416.24c-12.1,19.17 -25.01,37.77 -38.65,55.79l-1434.56 -404.29zm-1.99 -133.92c1.5,-21.81 3.88,-43.39 7.1,-64.69l1528.81 430.85c-8.46,20.06 -17.72,39.69 -27.73,58.87l-1508.18 -425.03zm336.88 -105.11l1239.22 349.24c-5.05,20.9 -10.94,41.49 -17.6,61.72l-1458.21 -410.96 236.59 0zm473.24 0l786.07 221.53c-1.64,21.77 -4.18,43.3 -7.54,64.55l-1015.12 -286.08 236.59 0zm473.22 0l311.86 87.89c2.02,22.28 3.12,44.82 3.27,67.6l-551.73 -155.49 236.6 0zm298.97 0c1.26,6.17 2.45,12.36 3.56,18.57l-65.89 -18.57 62.33 0z"/>
   <path class="fil13" d="M10160 3503.64c-213.77,-100.76 -362.19,-317.7 -363.39,-569.78 -1.2,-254.21 147.66,-474.08 363.39,-575.75l0 182.27c-124.45,86.05 -205.71,230.01 -204.94,392.73 0.77,161.11 81.77,303.05 204.94,388.22l0 182.31z"/>
   <path class="fil17" d="M8950.97 1681.06c-239.23,410.98 -127.66,973.32 249.22,1256.03 328.22,246.2 425.43,735.95 217.08,1093.86 -102.71,176.48 -260.55,287.89 -433.5,326.06l18.68 115.59c200.61,-42.74 383.95,-171.17 502.92,-375.57 239.23,-410.96 127.66,-973.3 -249.24,-1256.04 -328.19,-246.17 -425.4,-735.92 -217.05,-1093.84l-88.11 -66.09 88.1 66.08c208.34,-357.91 643.34,-448.47 971.53,-202.3 47.88,35.92 97.76,65.56 148.81,89.16l0 -125.91c-31.68,-16.98 -62.73,-36.72 -92.87,-59.33 -376.88,-282.69 -876.34,-178.7 -1115.57,232.3z"/>
   <path class="fil13" d="M278.61 2360.99c83.02,0.4 150.65,-66.59 151.04,-149.62 0.4,-83.02 -66.59,-150.65 -149.62,-151.04 -83.02,-0.4 -150.65,66.59 -151.04,149.62 -0.4,83.02 66.59,150.65 149.62,151.04z"/>
   <path class="fil18" d="M1231.48 4177.13c155.39,-0.74 281.96,124.63 282.7,280.02 0.73,155.39 -124.64,281.96 -280.03,282.7 -155.39,0.73 -281.95,-124.64 -282.69,-280.03 -0.74,-155.39 124.63,-281.95 280.02,-282.69zm0.34 70.44c116.48,-0.55 211.36,93.43 211.91,209.92 0.56,116.48 -93.43,211.36 -209.91,211.91 -116.49,0.56 -211.36,-93.43 -211.92,-209.91 -0.55,-116.48 93.43,-211.36 209.92,-211.92z"/>
   <path class="fil13" d="M4905.8 714.73l0.03 1.84c0.68,143.69 -115.26,260.73 -258.96,261.42 -143.69,0.68 -260.73,-115.26 -261.42,-258.95l0.03 -4.31 520.32 0z"/>
   <path class="fil19" d="M6233.86 7428.74c10.4,-27.91 16.16,-58.1 16.31,-89.62 0.68,-143.69 -115.26,-260.73 -258.96,-261.42 -143.69,-0.68 -260.73,115.26 -261.42,258.95 -0.15,32.4 5.64,63.43 16.32,92.09l487.75 0z"/>
   <path class="fil20" d="M10076.84 1033.5c29.05,0.14 56.71,-5.73 81.85,-16.43l0 -302.34 -254.55 0c-20.71,32.02 -32.81,70.15 -33,111.11 -0.55,114.15 91.55,207.12 205.7,207.66z"/>
   <path class="fil21" d="M9208.02 1118.65c56.72,0.27 102.93,-45.49 103.19,-102.21 0.27,-56.72 -45.49,-102.93 -102.21,-103.19 -56.72,-0.27 -102.93,45.49 -103.19,102.21 -0.27,56.72 45.49,102.92 102.21,103.19z"/>
   <path class="fil22" d="M3468.65 714.73c1.13,11.01 1.76,22.17 1.81,33.47 0.89,186.77 -149.8,338.9 -336.58,339.78 -186.77,0.89 -338.9,-149.8 -339.78,-336.58 -0.06,-12.39 0.57,-24.62 1.81,-36.67l85.28 0c-1.64,11.86 -2.48,23.96 -2.42,36.27 0.66,140.01 114.7,252.98 254.71,252.31 140.01,-0.66 252.98,-114.7 252.31,-254.71 -0.05,-11.49 -0.89,-22.8 -2.42,-33.87l85.28 0z"/>
  </g>
 </g>
</svg>
