<?xml version="1.0" encoding="UTF-8"?>
<!DOCTYPE svg PUBLIC "-//W3C//DTD SVG 1.1//EN" "http://www.w3.org/Graphics/SVG/1.1/DTD/svg11.dtd">
<!-- Creator: CorelDRAW 2021 (64-Bit) -->
<svg xmlns="http://www.w3.org/2000/svg" xml:space="preserve" width="101.6mm" height="101.6mm" version="1.1" style="shape-rendering:geometricPrecision; text-rendering:geometricPrecision; image-rendering:optimizeQuality; fill-rule:evenodd; clip-rule:evenodd"
viewBox="0 0 10160 10159.98"
 xmlns:xlink="http://www.w3.org/1999/xlink"
 xmlns:xodm="http://www.corel.com/coreldraw/odm/2003">
 <defs>
  <style type="text/css">
   <![CDATA[
    .fil12 {fill:none}
    .fil15 {fill:white}
    .fil11 {fill:#0AC8DB;fill-opacity:0.301961}
    .fil13 {fill:white;fill-opacity:0.301961}
    .fil14 {fill:white}
    .fil10 {fill:url(#id0)}
    .fil3 {fill:url(#id1)}
    .fil0 {fill:url(#id2)}
    .fil7 {fill:url(#id3)}
    .fil5 {fill:url(#id4)}
    .fil4 {fill:url(#id5)}
    .fil8 {fill:url(#id6)}
    .fil6 {fill:url(#id7)}
    .fil9 {fill:url(#id8)}
    .fil2 {fill:url(#id9)}
    .fil1 {fill:url(#id10)}
   ]]>
  </style>
  <linearGradient id="id0" gradientUnits="userSpaceOnUse" x1="-868" y1="1648.83" x2="2422.95" y2="3064.45">
   <stop offset="0" style="stop-opacity:1; stop-color:#83E127"/>
   <stop offset="0.231373" style="stop-opacity:1; stop-color:#01A582"/>
   <stop offset="0.729412" style="stop-opacity:1; stop-color:#01547E"/>
   <stop offset="1" style="stop-opacity:1; stop-color:#042244"/>
  </linearGradient>
  <linearGradient id="id1" gradientUnits="userSpaceOnUse" xlink:href="#id0" x1="3609.99" y1="6723.37" x2="4413.09" y2="7068.83">
  </linearGradient>
  <linearGradient id="id2" gradientUnits="userSpaceOnUse" xlink:href="#id0" x1="7998.62" y1="6816.1" x2="10991.78" y2="8120.36">
  </linearGradient>
  <linearGradient id="id3" gradientUnits="userSpaceOnUse" xlink:href="#id0" x1="4319.68" y1="698" x2="5009.32" y2="994.65">
  </linearGradient>
  <linearGradient id="id4" gradientUnits="userSpaceOnUse" xlink:href="#id0" x1="1403.51" y1="6590.88" x2="3013.35" y2="7283.36">
  </linearGradient>
  <linearGradient id="id5" gradientUnits="userSpaceOnUse" xlink:href="#id0" x1="4050.71" y1="4991.36" x2="5660.55" y2="5683.84">
  </linearGradient>
  <linearGradient id="id6" gradientUnits="userSpaceOnUse" xlink:href="#id0" x1="5964.99" y1="813.99" x2="6654.63" y2="1110.64">
  </linearGradient>
  <linearGradient id="id7" gradientUnits="userSpaceOnUse" xlink:href="#id0" x1="-42" y1="5265.36" x2="647.64" y2="5562.01">
  </linearGradient>
  <linearGradient id="id8" gradientUnits="userSpaceOnUse" xlink:href="#id0" x1="6538.52" y1="-586.67" x2="14011.67" y2="2396.97">
  </linearGradient>
  <linearGradient id="id9" gradientUnits="userSpaceOnUse" xlink:href="#id0" x1="6195.73" y1="6778.19" x2="11924.26" y2="9242.34">
  </linearGradient>
  <linearGradient id="id10" gradientUnits="userSpaceOnUse" xlink:href="#id0" x1="5498.5" y1="6510.21" x2="8305.28" y2="7717.56">
  </linearGradient>
 </defs>
 <g id="Слой_x0020_1">
  <metadata id="CorelCorpID_0Corel-Layer"/>
  <path class="fil0" d="M9822.78 5611.54c-267.72,-1.28 -514.34,89.49 -709.98,242.56l834.7 -235.23c-40.96,-4.64 -82.57,-7.13 -124.72,-7.33zm-856.39 379.22c-34.69,38.53 -66.78,79.44 -96.03,122.45l1289.64 -363.44 0 -86.02c-5.29,-1.66 -10.6,-3.29 -15.94,-4.88l-1177.67 331.89zm-164.57 237.17c-18.49,35.45 -35.2,71.95 -49.94,109.48l1408.12 -396.86 0 -95.38 -1358.18 382.76zm-85.6 214.91c-9.51,33.45 -17.55,67.53 -24,102.18l1467.78 -413.67 0 -95.39 -1443.78 406.88zm521.49 139.23l922.29 -259.93 0 -95.39 -1260.77 355.32 338.48 0zm677 0l245.29 -69.13 0 -95.39 -583.79 164.52 338.5 0z"/>
  <path class="fil1" d="M7195.2 5375.07c591.6,-2.8 1073.45,474.5 1076.26,1066.1 0.23,47.75 -2.72,94.78 -8.56,140.9l-271.09 0c7.73,-45.37 11.69,-92.02 11.46,-139.63 -2.11,-443.48 -363.32,-801.28 -806.8,-799.18 -443.48,2.11 -801.28,363.33 -799.18,806.8 0.21,44.99 4.18,89.08 11.5,132.01l-271.11 0c-5.43,-42.85 -8.37,-86.46 -8.58,-130.74 -2.8,-591.59 474.5,-1073.45 1066.1,-1076.26z"/>
  <path class="fil2" d="M9658.63 4461.4c172.43,-0.82 340.27,18.43 501.37,55.41l0 566.87c-157.41,-49.38 -324.98,-75.73 -498.78,-74.91 -880.53,4.19 -1595.47,702.05 -1629.73,1573.3l-547.64 0c34.49,-1172.42 992.78,-2115.05 2174.78,-2120.67z"/>
  <path class="fil3" d="M4095.47 6398.57c126.04,-0.6 234.64,74.98 282.24,183.5l-86.71 0c-40.96,-64.49 -113.14,-107.15 -195.17,-106.76 -81.25,0.39 -152.46,42.91 -193.01,106.76l-86.7 0c47.18,-107.54 154.34,-182.9 279.35,-183.5z"/>
  <path class="fil4" d="M5023.86 4340.3c339.31,-1.61 615.68,272.15 617.29,611.47 1.61,339.31 -272.15,615.68 -611.47,617.29 -339.31,1.61 -615.68,-272.15 -617.29,-611.47 -1.61,-339.3 272.15,-615.68 611.47,-617.29zm0.72 153.82c254.36,-1.2 461.54,204.02 462.75,458.37 1.21,254.36 -204.02,461.54 -458.37,462.75 -254.36,1.21 -461.54,-204.02 -462.75,-458.37 -1.2,-254.36 204.02,-461.54 458.37,-462.75z"/>
  <path class="fil5" d="M2376.66 5939.82c339.31,-1.61 615.68,272.15 617.29,611.47 0.05,10.32 -0.17,20.58 -0.62,30.78l-154.06 0c0.59,-9.94 0.91,-19.96 0.86,-30.06 -1.21,-254.35 -208.39,-459.57 -462.75,-458.37 -254.35,1.21 -459.57,208.39 -458.37,462.75 0.04,8.62 0.34,17.18 0.85,25.68l-154 0c-0.37,-8.28 -0.63,-16.59 -0.67,-24.96 -1.61,-339.3 272.15,-615.68 611.47,-617.29z"/>
  <path class="fil6" d="M374.89 4986.44c145.36,-0.68 263.76,116.59 264.45,261.95 0.69,145.36 -116.59,263.76 -261.95,264.45 -145.36,0.69 -263.76,-116.59 -264.45,-261.95 -0.68,-145.36 116.59,-263.76 261.95,-264.45zm0.31 65.9c108.97,-0.51 197.72,87.4 198.24,196.36 0.52,108.97 -87.4,197.72 -196.36,198.24 -108.97,0.52 -197.72,-87.4 -198.24,-196.36 -0.51,-108.97 87.4,-197.72 196.36,-198.24z"/>
  <path class="fil7" d="M4999.04 714.73c-15.92,129.53 -126.03,230.11 -259.97,230.75 -134.8,0.64 -246.39,-100.18 -262.45,-230.75l66.57 0c15.54,93.9 97.33,165.32 195.57,164.85 97.58,-0.47 178.27,-71.7 193.69,-164.85l66.59 0z"/>
  <path class="fil8" d="M6632.78 714.73c8.65,25.87 13.41,53.53 13.55,82.29 0.69,145.36 -116.59,263.76 -261.95,264.45 -145.36,0.69 -263.76,-116.59 -264.45,-261.95 -0.14,-29.64 4.63,-58.16 13.54,-84.79l70.88 0c-12,25.65 -18.66,54.28 -18.52,84.48 0.52,108.96 89.27,196.88 198.24,196.36 108.96,-0.52 196.88,-89.27 196.36,-198.24 -0.14,-29.53 -6.77,-57.5 -18.52,-82.6l70.87 0z"/>
  <path class="fil9" d="M9455.69 2429.95c-293.12,1.39 -566.34,-83.95 -795.48,-231.87l821.51 231.51c-8.66,0.19 -17.34,0.31 -26.03,0.36zm-941.99 -339.95c-36.17,-30.33 -70.85,-62.4 -103.91,-96.07l1393.15 392.62c-45.52,11.38 -91.9,20.62 -139.02,27.6l-1150.22 -324.15zm-184.97 -185.7c-22.96,-27.6 -44.92,-56.06 -65.82,-85.33l1756.27 494.95c-32.87,14.02 -66.37,26.87 -100.43,38.48l-1590.02 -448.1zm-120.39 -167.49c-16.06,-26.04 -31.34,-52.6 -45.77,-79.69l1996.12 562.55 0 25.7c-16.58,9.28 -33.37,18.25 -50.35,26.89l-1900 -535.45zm-84.21 -157.31c-11.42,-24.91 -22.16,-50.2 -32.18,-75.85l2066.74 582.45 0 66.79 -2034.56 -573.39zm-58.89 -150.16c-7.94,-24.05 -15.31,-48.37 -22,-72.98l2115.45 596.18 0 66.78 -2093.45 -589.98zm-39.57 -144.72c-5.1,-23.33 -9.66,-46.87 -13.61,-70.61l2146.63 604.96 0 66.78 -2133.02 -601.13zm-23.45 -140.18c-2.67,-22.71 -4.82,-45.57 -6.43,-68.59l2162.9 609.55 0 66.79 -2156.47 -607.75zm-9.6 -136.27c-0.24,-9.3 -0.45,-18.61 -0.49,-27.96 -0.06,-13 0.05,-25.95 0.33,-38.87l2166.23 610.49 0 66.78 -2166.07 -610.44zm2.73 -132.8c1.46,-21.85 3.39,-43.57 5.8,-65.15l2157.54 608.04 0 66.79 -2163.34 -609.68zm14.43 -129.5c1.63,-10.41 3.38,-20.79 5.24,-31.14l121.23 0 2022.44 569.96 0 66.78 -2148.91 -605.6zm600.41 -31.14l1548.5 436.4 0 66.78 -1785.46 -503.18 236.96 0zm473.96 0l1074.54 302.83 0 66.78 -1311.51 -369.61 236.97 0zm473.95 0l600.59 169.26 0 66.78 -837.57 -236.04 236.98 0zm473.95 0l126.64 35.69 0 66.78 -363.62 -102.47 236.98 0z"/>
  <path class="fil10" d="M2043.42 714.73c209.41,223.2 338.31,522.96 339.88,853.15 3.29,693.65 -556.35,1258.62 -1250.01,1261.92 -496.83,2.36 -927.6,-284.11 -1133.29,-701.73l0 -1108.36c55.21,-112.1 126.67,-214.77 211.29,-304.98l530.4 0c-329.16,147.98 -557.68,479.44 -555.87,863.57 2.48,519.98 426,939.51 945.98,937.05 519.98,-2.48 939.51,-426 937.05,-945.98 -1.82,-380.95 -229.64,-707.96 -555.8,-854.64l530.37 0z"/>
  <path class="fil11" d="M-0 6582.07l10158.69 0c0,0 -8782.18,0 -10158.69,-5867.34l0 5867.34z"/>
  <rect class="fil12" y="-0.01" width="10160" height="10159.99"/>
  <path class="fil13" d="M10160 6582.07l1.31 -1916.21c0,0 -1252.07,1916.21 -10160,1916.21l10158.69 0z"/>
  <path class="fil11" d="M10158.69 714.73l-10158.69 0c0,0 6035.85,648.87 10158.69,3484.97l0 -3484.97z"/>
  <path class="fil13" d="M10158.69 716.03l-2270.49 0c0,0 2270.49,905.57 2270.49,5867.34l0 -5867.34z"/>
  <path class="fil14" d="M967.47 5192.15c329.62,-1.59 633.26,110.17 874.14,298.64l-1027.69 -289.62c50.43,-5.71 101.66,-8.77 153.55,-9.02zm1054.4 466.9c42.71,47.43 82.22,97.81 118.24,150.75l-1747.4 -492.44c57.75,-26.21 117.59,-48.63 179.2,-66.95l1449.96 408.64zm202.62 291.99c22.76,43.65 43.33,88.6 61.49,134.8l-2161.08 -609.06c39.26,-29.69 80.14,-57.4 122.46,-82.92l1977.13 557.18zm105.39 264.61c11.71,41.18 21.61,83.14 29.55,125.8l-2359.43 -664.95 0 -93.29c6.54,-6.26 13.14,-12.46 19.8,-18.59l2310.08 651.03zm46.85 248.12c3.79,39 6.06,78.42 6.6,118.3l-3.6 0 -2379.73 -670.66 0 -117.45 2376.73 669.81zm-830.52 118.3l-1546.21 -435.75 0 -117.45 1963 553.2 -416.79 0zm-833.47 0l-712.74 -200.87 0 -117.44 1129.46 318.31 -416.72 0zm-712.74 0l0 -83.39 295.9 83.39 -295.9 0z"/>
  <path class="fil13" d="M-0 714.73l-1.31 1916.21c0,0 1252.07,-1916.21 10160,-1916.21l-10158.69 0z"/>
  <path class="fil13" d="M-0 6582.07l2270.49 0c0,0 -2270.49,-905.57 -2270.49,-5867.34l0 5867.34z"/>
  <path class="fil15" d="M3204.42 4244.6c-239.23,410.98 -127.66,973.32 249.22,1256.03 324.44,243.37 423.11,724.69 224.1,1081.44l121.75 0c183.63,-401.47 63.5,-912.42 -289.91,-1177.54 -328.19,-246.17 -425.4,-735.92 -217.05,-1093.84l-88.11 -66.09 88.1 66.08c208.34,-357.91 643.34,-448.47 971.53,-202.3 376.91,282.74 876.36,178.73 1115.6,-232.27 239.23,-410.98 127.66,-973.3 -249.26,-1256.03 -328.19,-246.18 -425.39,-735.93 -217.05,-1093.86 208.35,-357.91 643.33,-448.47 971.53,-202.28 376.92,282.72 876.36,178.72 1115.59,-232.27 67.95,-116.73 107.57,-245.66 120.86,-376.94l-105.66 0c-13.21,108.29 -47.14,214.36 -103.31,310.85 -208.33,357.92 -643.33,448.46 -971.54,202.28 -376.89,-282.71 -876.33,-178.72 -1115.56,232.28 -239.23,410.98 -127.66,973.33 249.22,1256.03 328.21,246.18 425.41,735.95 217.07,1093.86 -208.35,357.92 -643.34,448.47 -971.55,202.27 -376.88,-282.69 -876.34,-178.7 -1115.57,232.3z"/>
  <path class="fil15" d="M3795.7 714.73c254.79,261.85 315.6,692.11 127.59,1015.06 -102.71,176.47 -260.54,287.88 -433.49,326.06l18.68 115.59c200.62,-42.73 383.95,-171.17 502.92,-375.57 196.7,-337.91 156.19,-778.13 -73.93,-1081.14l-141.77 0z"/>
  <path class="fil14" d="M9455.23 714.73c-17.25,43.91 -26.62,91.74 -26.38,141.78 1.01,211.56 173.32,382.24 384.87,381.24 152.67,-0.73 284.04,-90.68 344.97,-220.19l0 212.42c-90.51,83.68 -211.38,135.07 -344.36,135.7 -282.21,1.34 -512.07,-226.35 -513.41,-508.56 -0.23,-49.38 6.56,-97.16 19.42,-142.39l134.89 0z"/>
  <path class="fil14" d="M-0 2173.45c372.79,51.03 660.83,369.81 662.68,756.92 1.84,389.62 -286.87,712.78 -662.68,764.22l0 -194.63c268.78,-49.58 471.8,-285.77 470.45,-568.68 -1.34,-281.01 -203.87,-513.99 -470.45,-563.18l0 -194.65z"/>
  <path class="fil14" d="M5945.36 5989.16c277.27,-1.32 503.11,222.39 504.42,499.66 0.15,31.85 -2.71,63.02 -8.23,93.25l-128.51 0c7.35,-29.67 11.2,-60.7 11.05,-92.66 -0.99,-207.85 -170.29,-375.54 -378.14,-374.56 -207.85,0.99 -375.54,170.29 -374.56,378.14 0.15,30.71 4,60.54 11.07,89.08l-128.56 0c-5.25,-28.71 -8.06,-58.28 -8.2,-88.49 -1.32,-277.26 222.39,-503.11 499.66,-504.42z"/>
  <path class="fil14" d="M10059.86 2742.44c34.34,-0.16 67.84,3.34 100.14,10.1l0 122.74c-31.63,-9 -65.04,-13.76 -99.57,-13.6 -197.17,0.93 -356.24,161.53 -355.3,358.69 0.93,197.17 161.52,356.24 358.69,355.3 33.35,-0.16 65.6,-4.89 96.18,-13.59l0 122.76c-30.87,6.45 -62.85,9.91 -95.62,10.07 -263.01,1.25 -477.24,-210.95 -478.49,-473.97 -1.25,-263.02 210.95,-477.24 473.97,-478.5z"/>
 </g>
</svg>
