<?xml version="1.0" encoding="UTF-8"?>
<!DOCTYPE svg PUBLIC "-//W3C//DTD SVG 1.1//EN" "http://www.w3.org/Graphics/SVG/1.1/DTD/svg11.dtd">
<!-- Creator: CorelDRAW 2021 (64-Bit) -->
<svg xmlns="http://www.w3.org/2000/svg" xml:space="preserve" width="101.6mm" height="101.6mm" version="1.1" style="shape-rendering:geometricPrecision; text-rendering:geometricPrecision; image-rendering:optimizeQuality; fill-rule:evenodd; clip-rule:evenodd"
viewBox="0 0 10160 10159.98"
 xmlns:xlink="http://www.w3.org/1999/xlink"
 xmlns:xodm="http://www.corel.com/coreldraw/odm/2003">
 <defs>
  <style type="text/css">
   <![CDATA[
    .fil8 {fill:none}
    .fil11 {fill:white}
    .fil7 {fill:#0AC8DB;fill-opacity:0.301961}
    .fil9 {fill:white;fill-opacity:0.301961}
    .fil10 {fill:white}
    .fil0 {fill:url(#id0)}
    .fil6 {fill:url(#id1)}
    .fil2 {fill:url(#id2)}
    .fil4 {fill:url(#id3)}
    .fil5 {fill:url(#id4)}
    .fil1 {fill:url(#id5)}
    .fil3 {fill:url(#id6)}
   ]]>
  </style>
  <linearGradient id="id0" gradientUnits="userSpaceOnUse" x1="7998.62" y1="6816.1" x2="10991.78" y2="8120.36">
   <stop offset="0" style="stop-opacity:1; stop-color:#83E127"/>
   <stop offset="0.231373" style="stop-opacity:1; stop-color:#01A582"/>
   <stop offset="0.729412" style="stop-opacity:1; stop-color:#01547E"/>
   <stop offset="1" style="stop-opacity:1; stop-color:#042244"/>
  </linearGradient>
  <linearGradient id="id1" gradientUnits="userSpaceOnUse" xlink:href="#id0" x1="-868" y1="1648.83" x2="2422.95" y2="3064.45">
  </linearGradient>
  <linearGradient id="id2" gradientUnits="userSpaceOnUse" xlink:href="#id0" x1="6195.73" y1="6778.19" x2="11924.26" y2="9242.34">
  </linearGradient>
  <linearGradient id="id3" gradientUnits="objectBoundingBox" xlink:href="#id0" x1="0%" y1="52.9853%" x2="101.576%" y2="109.338%">
  </linearGradient>
  <linearGradient id="id4" gradientUnits="userSpaceOnUse" xlink:href="#id0" x1="6538.52" y1="-586.67" x2="14011.67" y2="2396.97">
  </linearGradient>
  <linearGradient id="id5" gradientUnits="objectBoundingBox" xlink:href="#id0" x1="0%" y1="52.9854%" x2="101.578%" y2="109.34%">
  </linearGradient>
  <linearGradient id="id6" gradientUnits="userSpaceOnUse" xlink:href="#id0" x1="3609.99" y1="6723.37" x2="4413.09" y2="7068.83">
  </linearGradient>
 </defs>
 <g id="Слой_x0020_1">
  <metadata id="CorelCorpID_0Corel-Layer"/>
  <path class="fil0" d="M9822.78 5611.54c-267.72,-1.28 -514.34,89.49 -709.98,242.56l834.7 -235.23c-40.96,-4.64 -82.57,-7.13 -124.72,-7.33zm-856.39 379.22c-34.69,38.53 -66.78,79.44 -96.03,122.45l1289.64 -363.44 0 -86.02c-5.29,-1.66 -10.6,-3.29 -15.94,-4.88l-1177.67 331.89zm-164.57 237.17c-18.49,35.45 -35.2,71.95 -49.94,109.48l1408.12 -396.86 0 -95.38 -1358.18 382.76zm-85.6 214.91c-9.51,33.45 -17.55,67.53 -24,102.18l1467.78 -413.67 0 -95.39 -1443.78 406.88zm-38.05 201.53c-3.1,31.94 -4.96,64.23 -5.38,96.91l1487.21 -419.14 0 -95.39 -1481.83 417.62zm-2.85 191.58c2.15,31.2 5.56,62.08 10.16,92.55l1474.52 -415.56 0 -95.39 -1484.68 418.4zm433.51 164.02l1051.17 -296.25 0 -95.39 -1389.63 391.64 338.46 0zm677.01 0l374.16 -105.45 0 -95.39 -712.63 200.84 338.47 0zm374.16 -10.06l-35.66 10.06 35.66 0 0 -10.06z"/>
  <path class="fil1" d="M7195.2 5375.07c591.6,-2.8 1073.45,474.5 1076.26,1066.1 2.81,591.6 -474.5,1073.45 -1066.1,1076.26 -591.6,2.81 -1073.45,-474.5 -1076.26,-1066.1 -2.8,-591.59 474.5,-1073.45 1066.1,-1076.26zm1.27 268.19c443.48,-2.1 804.69,355.7 806.8,799.18 2.11,443.48 -355.7,804.69 -799.18,806.8 -443.48,2.11 -804.69,-355.7 -806.8,-799.18 -2.1,-443.47 355.7,-804.69 799.18,-806.8z"/>
  <path class="fil2" d="M9658.63 4461.4c172.43,-0.82 340.27,18.43 501.37,55.41l0 566.87c-157.41,-49.38 -324.98,-75.73 -498.78,-74.91 -905.12,4.31 -1635.38,741.55 -1631.1,1646.66 4.31,905.12 741.53,1635.39 1646.66,1631.1 168.33,-0.8 330.59,-27 483.22,-74.86l0 566.76c-154.59,35.47 -315.4,54.68 -480.63,55.47 -1207.43,5.73 -2190.88,-968.45 -2196.62,-2175.88 -5.71,-1207.41 968.45,-2190.88 2175.88,-2196.62z"/>
  <path class="fil3" d="M4095.47 6398.57c169.27,-0.8 307.14,135.77 307.95,305.05 0.8,169.27 -135.77,307.14 -305.05,307.95 -169.27,0.8 -307.14,-135.77 -307.95,-305.05 -0.8,-169.27 135.77,-307.14 305.05,-307.95zm0.36 76.74c126.89,-0.6 230.24,101.78 230.85,228.67 0.6,126.89 -101.78,230.24 -228.67,230.85 -126.89,0.6 -230.24,-101.78 -230.85,-228.67 -0.6,-126.89 101.78,-230.24 228.67,-230.85z"/>
  <path class="fil1" d="M5023.86 4340.3c339.31,-1.61 615.68,272.15 617.29,611.47 1.61,339.31 -272.15,615.68 -611.47,617.29 -339.31,1.61 -615.68,-272.15 -617.29,-611.47 -1.61,-339.3 272.15,-615.68 611.47,-617.29zm0.72 153.82c254.36,-1.2 461.54,204.02 462.75,458.37 1.21,254.36 -204.02,461.54 -458.37,462.75 -254.36,1.21 -461.54,-204.02 -462.75,-458.37 -1.2,-254.36 204.02,-461.54 458.37,-462.75z"/>
  <path class="fil1" d="M2376.66 5939.82c339.31,-1.61 615.68,272.15 617.29,611.47 1.61,339.31 -272.15,615.68 -611.47,617.29 -339.31,1.61 -615.68,-272.15 -617.29,-611.47 -1.61,-339.3 272.15,-615.68 611.47,-617.29zm0.72 153.82c254.36,-1.2 461.54,204.02 462.75,458.37 1.21,254.36 -204.02,461.54 -458.37,462.75 -254.36,1.21 -461.54,-204.02 -462.75,-458.37 -1.2,-254.36 204.02,-461.54 458.37,-462.75z"/>
  <path class="fil4" d="M374.89 4986.44c145.36,-0.68 263.76,116.59 264.45,261.95 0.69,145.36 -116.59,263.76 -261.95,264.45 -145.36,0.69 -263.76,-116.59 -264.45,-261.95 -0.68,-145.36 116.59,-263.76 261.95,-264.45zm0.31 65.9c108.97,-0.51 197.72,87.4 198.24,196.36 0.52,108.97 -87.4,197.72 -196.36,198.24 -108.97,0.52 -197.72,-87.4 -198.24,-196.36 -0.51,-108.97 87.4,-197.72 196.36,-198.24z"/>
  <path class="fil4" d="M4736.57 419.08c145.36,-0.68 263.76,116.59 264.45,261.95 0.69,145.36 -116.59,263.76 -261.95,264.45 -145.36,0.69 -263.76,-116.59 -264.45,-261.95 -0.68,-145.36 116.59,-263.76 261.95,-264.45zm0.31 65.9c108.97,-0.51 197.72,87.4 198.24,196.36 0.52,108.97 -87.4,197.72 -196.36,198.24 -108.97,0.52 -197.72,-87.4 -198.24,-196.36 -0.51,-108.97 87.4,-197.72 196.36,-198.24z"/>
  <path class="fil4" d="M6381.88 535.07c145.36,-0.68 263.76,116.59 264.45,261.95 0.69,145.36 -116.59,263.76 -261.95,264.45 -145.36,0.69 -263.76,-116.59 -264.45,-261.95 -0.68,-145.36 116.59,-263.76 261.95,-264.45zm0.31 65.9c108.97,-0.51 197.72,87.4 198.24,196.36 0.52,108.97 -87.4,197.72 -196.36,198.24 -108.97,0.52 -197.72,-87.4 -198.24,-196.36 -0.51,-108.97 87.4,-197.72 196.36,-198.24z"/>
  <path class="fil5" d="M9455.69 2429.95c-293.12,1.39 -566.34,-83.95 -795.48,-231.87l821.51 231.51c-8.66,0.19 -17.34,0.31 -26.03,0.36zm-941.99 -339.95c-36.17,-30.33 -70.85,-62.4 -103.91,-96.07l1393.15 392.62c-45.52,11.38 -91.9,20.62 -139.02,27.6l-1150.22 -324.15zm-184.97 -185.7c-22.96,-27.6 -44.92,-56.06 -65.82,-85.33l1756.27 494.95c-32.87,14.02 -66.37,26.87 -100.43,38.48l-1590.02 -448.1zm-120.39 -167.49c-16.06,-26.04 -31.34,-52.6 -45.77,-79.69l1996.12 562.55 0 25.7c-16.58,9.28 -33.37,18.25 -50.35,26.89l-1900 -535.45zm-84.21 -157.31c-11.42,-24.91 -22.16,-50.2 -32.18,-75.85l2066.74 582.45 0 66.79 -2034.56 -573.39zm-58.89 -150.16c-7.94,-24.05 -15.31,-48.37 -22,-72.98l2115.45 596.18 0 66.78 -2093.45 -589.98zm-39.57 -144.72c-5.1,-23.33 -9.66,-46.87 -13.61,-70.61l2146.63 604.96 0 66.78 -2133.02 -601.13zm-23.45 -140.18c-2.67,-22.71 -4.82,-45.57 -6.43,-68.59l2162.9 609.55 0 66.79 -2156.47 -607.75zm-9.6 -136.27c-0.24,-9.3 -0.45,-18.61 -0.49,-27.96 -0.06,-13 0.05,-25.95 0.33,-38.87l2166.23 610.49 0 66.78 -2166.07 -610.44zm2.73 -132.8c1.46,-21.85 3.39,-43.57 5.8,-65.15l2157.54 608.04 0 66.79 -2163.34 -609.68zm14.43 -129.5c1.63,-10.41 3.38,-20.79 5.24,-31.14l121.23 0 2022.44 569.96 0 66.78 -2148.91 -605.6zm600.41 -31.14l1548.5 436.4 0 66.78 -1785.46 -503.18 236.96 0zm473.96 0l1074.54 302.83 0 66.78 -1311.51 -369.61 236.97 0zm473.95 0l600.59 169.26 0 66.78 -837.57 -236.04 236.98 0zm473.95 0l126.64 35.69 0 66.78 -363.62 -102.47 236.98 0z"/>
  <path class="fil6" d="M1121.38 317.87c693.65,-3.28 1258.62,556.35 1261.92,1250.01 3.29,693.65 -556.35,1258.62 -1250.01,1261.92 -496.83,2.36 -927.6,-284.11 -1133.29,-701.73l0 -1108.36c203.81,-413.82 628.76,-699.5 1121.38,-701.84zm1.49 314.45c519.98,-2.45 943.5,417.07 945.98,937.05 2.46,519.98 -417.07,943.5 -937.05,945.98 -519.98,2.46 -943.5,-417.07 -945.98,-937.05 -2.45,-519.96 417.07,-943.5 937.05,-945.98z"/>
  <path class="fil7" d="M-0 6582.07l10158.69 0c0,0 -8782.18,0 -10158.69,-5867.34l0 5867.34z"/>
  <rect class="fil8" y="-0.01" width="10160" height="10159.99"/>
  <path class="fil9" d="M10160 6582.07l1.31 -1916.21c0,0 -1252.07,1916.21 -10160,1916.21l10158.69 0z"/>
  <path class="fil7" d="M10158.69 714.73l-10158.69 0c0,0 6035.85,648.87 10158.69,3484.97l0 -3484.97z"/>
  <path class="fil9" d="M10158.69 716.03l-2270.49 0c0,0 2270.49,905.57 2270.49,5867.34l0 -5867.34z"/>
  <path class="fil10" d="M967.47 5192.15c329.62,-1.59 633.26,110.17 874.14,298.64l-1027.69 -289.62c50.43,-5.71 101.66,-8.77 153.55,-9.02zm1054.4 466.9c42.71,47.43 82.22,97.81 118.24,150.75l-1747.4 -492.44c57.75,-26.21 117.59,-48.63 179.2,-66.95l1449.96 408.64zm202.62 291.99c22.76,43.65 43.33,88.6 61.49,134.8l-2161.08 -609.06c39.26,-29.69 80.14,-57.4 122.46,-82.92l1977.13 557.18zm105.39 264.61c11.71,41.18 21.61,83.14 29.55,125.8l-2359.43 -664.95 0 -93.29c6.54,-6.26 13.14,-12.46 19.8,-18.59l2310.08 651.03zm46.85 248.12c3.82,39.33 6.11,79.09 6.62,119.32l-2383.35 -671.68 0 -117.45 2376.73 669.81zm3.5 235.88c-2.64,38.42 -6.83,76.43 -12.5,113.94l-2367.73 -667.27 0 -117.45 2380.23 670.78zm-799.79 126.96l-1580.44 -445.41 0 -117.44 1997.16 562.85 -416.72 0zm-833.54 0l-746.9 -210.49 0 -117.44 1163.62 327.93 -416.72 0zm-746.9 -93.04l330.13 93.04 -330.13 0 0 -93.04z"/>
  <path class="fil9" d="M-0 714.73l-1.31 1916.21c0,0 1252.07,-1916.21 10160,-1916.21l-10158.69 0z"/>
  <path class="fil9" d="M-0 6582.07l2270.49 0c0,0 -2270.49,-905.57 -2270.49,-5867.34l0 5867.34z"/>
  <path class="fil11" d="M3204.42 4244.6c-239.23,410.98 -127.66,973.32 249.22,1256.03 328.22,246.2 425.43,735.95 217.08,1093.86 -102.71,176.48 -260.55,287.89 -433.5,326.06l18.68 115.59c200.61,-42.74 383.95,-171.17 502.92,-375.57 239.23,-410.96 127.66,-973.3 -249.24,-1256.04 -328.19,-246.17 -425.4,-735.92 -217.05,-1093.84l-88.11 -66.09 88.1 66.08c208.34,-357.91 643.34,-448.47 971.53,-202.3 376.91,282.74 876.36,178.73 1115.6,-232.27 239.23,-410.98 127.66,-973.3 -249.26,-1256.03 -328.19,-246.18 -425.39,-735.93 -217.05,-1093.86 208.35,-357.91 643.33,-448.47 971.53,-202.28 376.92,282.72 876.36,178.72 1115.59,-232.27 95.36,-163.81 134.94,-351.66 124.23,-536.29l-103.46 16.72c6.66,156.4 -28.17,314.82 -108.88,453.48 -208.33,357.92 -643.33,448.46 -971.54,202.28 -376.89,-282.71 -876.33,-178.72 -1115.56,232.28 -239.23,410.98 -127.66,973.33 249.22,1256.03 328.21,246.18 425.41,735.95 217.07,1093.86 -208.35,357.92 -643.34,448.47 -971.55,202.27 -376.88,-282.69 -876.34,-178.7 -1115.57,232.3z"/>
  <path class="fil11" d="M3341.12 0c35.09,248.31 161.27,483.02 365.1,635.93 328.22,246.19 425.43,735.95 217.07,1093.86 -102.71,176.47 -260.54,287.88 -433.49,326.06l18.68 115.59c200.62,-42.73 383.95,-171.17 502.92,-375.57 239.23,-410.96 127.66,-973.3 -249.24,-1256.03 -173.68,-130.28 -282.65,-328.77 -315.9,-539.84l-105.14 0z"/>
  <path class="fil10" d="M9809.48 343.71c134.74,-0.64 257.51,50.96 349.21,135.74l0 212.39c-61.49,-130.71 -194.64,-220.92 -348.6,-220.2 -211.56,1.01 -382.24,173.32 -381.24,384.87 1.01,211.56 173.32,382.24 384.87,381.24 152.67,-0.73 284.04,-90.68 344.97,-220.19l0 212.42c-90.51,83.68 -211.38,135.07 -344.36,135.7 -282.21,1.34 -512.07,-226.35 -513.41,-508.56 -1.34,-282.21 226.35,-512.07 508.56,-513.41z"/>
  <path class="fil10" d="M-0 2173.45c372.79,51.03 660.83,369.81 662.68,756.92 1.84,389.62 -286.87,712.78 -662.68,764.22l0 -194.63c268.78,-49.58 471.8,-285.77 470.45,-568.68 -1.34,-281.01 -203.87,-513.99 -470.45,-563.18l0 -194.65z"/>
  <path class="fil10" d="M5945.36 5989.16c277.27,-1.32 503.11,222.39 504.42,499.66 1.32,277.27 -222.39,503.11 -499.66,504.42 -277.27,1.32 -503.11,-222.39 -504.42,-499.66 -1.32,-277.26 222.39,-503.11 499.66,-504.42zm0.59 125.69c207.85,-0.98 377.15,166.71 378.14,374.56 0.98,207.85 -166.71,377.15 -374.56,378.14 -207.85,0.98 -377.15,-166.71 -378.14,-374.56 -0.98,-207.85 166.71,-377.15 374.56,-378.14z"/>
  <path class="fil10" d="M10059.86 2742.44c34.34,-0.16 67.84,3.34 100.14,10.1l0 122.74c-31.63,-9 -65.04,-13.76 -99.57,-13.6 -197.17,0.93 -356.24,161.53 -355.3,358.69 0.93,197.17 161.52,356.24 358.69,355.3 33.35,-0.16 65.6,-4.89 96.18,-13.59l0 122.76c-30.87,6.45 -62.85,9.91 -95.62,10.07 -263.01,1.25 -477.24,-210.95 -478.49,-473.97 -1.25,-263.02 210.95,-477.24 473.97,-478.5z"/>
 </g>
</svg>
