<?xml version="1.0" encoding="UTF-8"?>
<!DOCTYPE svg PUBLIC "-//W3C//DTD SVG 1.1//EN" "http://www.w3.org/Graphics/SVG/1.1/DTD/svg11.dtd">
<!-- Creator: CorelDRAW 2021 (64-Bit) -->
<svg xmlns="http://www.w3.org/2000/svg" xml:space="preserve" width="297mm" height="210mm" version="1.1" style="shape-rendering:geometricPrecision; text-rendering:geometricPrecision; image-rendering:optimizeQuality; fill-rule:evenodd; clip-rule:evenodd"
viewBox="0 0 29700 21000"
 xmlns:xlink="http://www.w3.org/1999/xlink"
 xmlns:xodm="http://www.corel.com/coreldraw/odm/2003">
 <defs>
  <style type="text/css">
   <![CDATA[
    .fil0 {fill:white}
    .fil3 {fill:white;fill-rule:nonzero}
    .fil2 {fill:white}
    .fil1 {fill:url(#id0)}
   ]]>
  </style>
  <linearGradient id="id0" gradientUnits="userSpaceOnUse" x1="1797.62" y1="10997.65" x2="23324.29" y2="20257.45">
   <stop offset="0" style="stop-opacity:1; stop-color:#83E127"/>
   <stop offset="0.231373" style="stop-opacity:1; stop-color:#01A582"/>
   <stop offset="0.729412" style="stop-opacity:1; stop-color:#01547E"/>
   <stop offset="1" style="stop-opacity:1; stop-color:#042244"/>
  </linearGradient>
 </defs>
 <g id="Слой_x0020_1">
  <metadata id="CorelCorpID_0Corel-Layer"/>
  <g id="_2028450774192">
   <circle class="fil0" transform="matrix(-1.26429 0.005999 0.005999 1.26429 14849.5 10507.1)" r="7106.25"/>
   <path class="fil1" d="M14810.49 2291.67c4537.27,-21.53 8232.92,3639.2 8254.44,8176.47 21.53,4537.27 -3639.2,8232.92 -8176.47,8254.44 -4537.27,21.53 -8232.92,-3639.2 -8254.44,-8176.47 -21.53,-4537.27 3639.2,-8232.92 8176.47,-8254.44z"/>
   <path class="fil2" d="M11593.81 5834.63l5141.58 1449.04 187.24 -192.42 2067.36 -1226.02c117.56,-62.94 162.36,-111.62 326.34,-64.47l432.47 119.97c47.64,13.21 63.55,64.48 14.05,131.54l-1078.29 1272.94 -401.76 51.58 111.37 40.81c37.47,13.73 54.01,205.61 18.07,304.19l341.46 -24c93.78,-9.82 17.22,618.84 -58.87,694.06l88.84 -4.88c70.85,-5.36 59.52,730.85 -29.82,725.22l-350.78 -36.22 -338.58 -131.55 -0.21 132.99 217.43 79.1c71.17,32.14 426.12,223.67 251.62,209.21l-855.53 -158.52 -792.41 -192.87 -5132.67 -1475.67c-359.61,-103.39 -893.41,-303.01 -1094.79,-370.7 -225.25,-75.71 -1046.28,-428.84 -1101.76,-566.61 -90.53,-224.81 156.92,-328.68 236.83,-345.15 78.46,-16.19 730.52,-115.85 837.49,-134.12l502.28 -81.69 300.93 -177.66c56.3,-30.28 93.77,-43.04 160.11,-28.1zm3958.96 1628.97l-170.22 -47.7 -24.4 87.07 170.23 47.69 24.39 -87.06zm490.53 137.44l-170.23 -47.7 -24.39 87.07 170.22 47.69 24.4 -87.06zm-1187.19 -332.64l170.23 47.69 -24.4 87.07 -170.22 -47.7 24.39 -87.06zm-490.52 -137.44l170.23 47.69 -24.4 87.07 -170.22 -47.7 24.39 -87.06zm-846.73 -237.25l-170.23 -47.69 -24.39 87.06 170.22 47.7 24.4 -87.07zm490.52 137.44l-170.22 -47.69 -24.4 87.06 170.23 47.7 24.39 -87.07zm-1187.18 -332.64l170.22 47.7 -24.39 87.07 -170.23 -47.7 24.4 -87.07zm-490.52 -137.44l170.22 47.7 -24.39 87.07 -170.23 -47.7 24.4 -87.07zm-714.81 -521.44l21.87 139.08 -179.95 23.4 -45.32 -40.42 78.98 -121.56 52.64 -23.98 71.78 23.48zm-255.5 -61.9l-130.56 88.84 74.83 78.31 65.49 4.35 81.93 -120.46 -0.43 -43.78 -91.26 -7.26z"/>
   <path class="fil0" d="M14245.59 16856c-46.76,-2.94 -93.54,-5.82 -140.2,-9.52 -258.97,-26.58 -787.05,-127.81 -1295.97,-312.17 -651.76,-236.09 -1426.52,-664.8 -1854.37,-1066.89l0.01 -0.13c503.77,258.36 1068.26,475.08 1676.79,591.51 1319.29,252.41 2639.39,212.62 3817.3,-140.01l-0.14 0.35c0,0 -116.23,148.28 -117.6,149.8 -720.34,800.49 -1751.88,802.02 -2085.82,787.06z"/>
   <path class="fil0" d="M12756.87 16632c-1921.68,-463.36 -3580.28,-1563.21 -4239.31,-3037.48 -6.8,-15.19 816.11,952.34 2121.97,1701.36l0.37 0.4c556.52,567.35 852.3,756.36 2116.97,1335.72z"/>
   <path class="fil0" d="M15086.7 16868.12c3065.78,-158.92 3924.89,-1442.66 4373.88,-3032.11 2.49,-8.81 -402.36,556.37 -992.27,1039.99 -167.13,137.02 -358,256.81 -549.74,388.15 -391.95,268.5 -889.26,450.93 -1287.45,597.59 -344.64,495.64 -722.86,839.87 -1544.42,1006.38z"/>
   <path class="fil0" d="M18115.87 16110.17c587.94,-308.22 1011.86,-639.18 1394.47,-986.64 311.62,-283.01 592.96,-643.07 729.67,-898.11 599.05,-1117.51 554.33,-2570.6 113.37,-3311.66 -4.62,-7.74 67.42,649.83 -131.05,1374.91 -133.64,488.23 -405.72,1038.18 -648.77,1386.02 -42.64,608.25 -434.99,1707.77 -1457.69,2435.48z"/>
   <path class="fil0" d="M20581.63 13743.9c524.2,-841.16 948.82,-2541.13 930.99,-3186.28 -31.14,-1126.84 -1562.07,-1752.66 -2459.61,-1358.95 -8.29,3.63 963.7,260.39 1257.39,1462.18 522.09,571.3 662.02,1932.56 271.23,3083.05z"/>
   <path class="fil0" d="M18957.75 7681.01c280.13,-54.23 1003.35,253.49 1412.61,542.3 616.75,435.25 1053.57,1078.92 1129.38,1763.73 1,9.05 -55.99,-320.89 -539.02,-658.55 -389.35,-272.16 -1423.92,-586.68 -1990.76,-196.95 114.45,-437.89 105.06,-888.62 -12.21,-1450.53z"/>
   <path class="fil3" d="M8724.32 11484.45l1162.57 0c20.94,0 39.45,-7.68 55.51,-23.03 16.06,-15.37 24.08,-33.53 24.08,-54.47 0,-22.34 -8.02,-40.85 -24.08,-55.51 -16.06,-14.66 -34.57,-21.99 -55.51,-21.99l-1162.57 0 0 155zm0 -511.11l0 155.01 1164.67 0c20.94,0 39.09,-6.98 54.46,-20.95 15.36,-13.96 23.03,-32.12 23.03,-54.46 0,-20.95 -8.02,-39.45 -24.08,-55.5 -16.06,-16.06 -34.57,-24.1 -55.51,-24.1l-1162.57 0zm-100.55 712.21c-27.92,0 -51.67,-9.78 -71.22,-29.33 -19.55,-19.55 -29.32,-43.29 -29.32,-71.22l0 -712.21c0,-27.92 9.77,-51.67 29.32,-71.22 19.55,-19.54 43.3,-29.32 71.22,-29.32l1254.74 0c39.1,0 75.76,7.33 109.98,21.99 34.21,14.67 64.23,34.57 90.07,59.7 25.84,25.14 46.08,54.82 60.74,89.02 14.67,34.22 21.99,70.88 21.99,109.98 0,34.92 -5.93,67.38 -17.8,97.41 -11.86,30.02 -27.57,56.9 -47.13,80.64 19.56,23.74 35.27,50.62 47.13,80.65 11.87,30.03 17.8,61.79 17.8,95.31 0,39.1 -7.32,75.41 -21.99,108.93 -14.66,33.51 -34.9,62.84 -60.74,87.98 -25.84,25.13 -55.86,45.03 -90.07,59.69 -34.22,14.67 -70.88,22 -109.98,22l-1254.74 0zm2367.03 -226.23c0,-36.31 12.58,-67.04 37.72,-92.17 25.12,-25.14 55.85,-37.7 92.16,-37.7 36.31,0 67.03,12.56 92.16,37.7 25.14,25.13 37.72,55.86 37.72,92.17 0,36.31 -12.58,67.03 -37.72,92.17 -25.13,25.13 -55.85,37.7 -92.16,37.7 -36.31,0 -67.04,-12.57 -92.16,-37.7 -25.14,-25.14 -37.72,-55.86 -37.72,-92.17zm-441.98 188.52c-20.94,25.14 -46.78,37.71 -77.5,37.71 -27.93,0 -51.68,-9.78 -71.23,-29.33 -19.54,-19.55 -29.32,-43.29 -29.32,-71.22 0,-25.14 6.98,-45.39 20.95,-60.75l509.01 -684.97c23.75,-32.11 55.17,-58.3 94.26,-78.55 39.11,-20.25 81.01,-30.38 125.69,-30.38 41.89,0 81.69,9.08 119.4,27.23 37.71,18.16 68.43,43.29 92.17,75.41l509.02 680.78c8.37,9.78 15.35,20.6 20.95,32.48 5.58,11.87 8.37,24.78 8.37,38.75 0,27.93 -9.78,51.67 -29.32,71.22 -19.56,19.55 -43.3,29.33 -71.23,29.33 -33.51,0 -60.04,-13.26 -79.6,-39.81l-488.07 -651.45c-9.77,-11.17 -21.99,-23.39 -36.65,-36.66 -14.66,-13.26 -29.68,-19.9 -45.04,-19.9 -15.36,0 -30.38,6.64 -45.04,19.9 -14.66,13.27 -26.19,25.49 -34.56,36.66l-492.26 653.55zm1809.84 -318.39c-39.1,0 -75.41,-7.34 -108.92,-22 -33.52,-14.66 -62.85,-34.56 -87.99,-59.7 -25.12,-25.14 -45.03,-54.46 -59.69,-87.98 -14.67,-33.51 -22,-69.82 -22,-108.92 0,-39.11 7.33,-75.42 22,-108.93 14.66,-33.51 34.57,-62.84 59.69,-87.98 25.14,-25.13 54.47,-45.03 87.99,-59.7 33.51,-14.66 69.82,-21.99 108.92,-21.99l1271.5 0c27.93,0 51.66,9.78 71.22,29.32 19.55,19.55 29.33,43.3 29.33,71.22 0,27.93 -9.78,51.68 -29.33,71.22 -19.56,19.55 -43.29,29.33 -71.22,29.33l-1275.69 0c-20.94,0 -39.45,7.33 -55.51,21.99 -16.06,14.67 -24.09,33.17 -24.09,55.52 0,20.95 8.03,39.1 24.09,54.46 16.06,15.36 34.57,23.04 55.51,23.04l1158.38 0c39.11,0 75.77,7.33 109.97,22 34.22,14.65 63.89,34.56 89.03,59.7 25.14,25.14 45.04,54.8 59.7,89.02 14.66,34.21 22,70.87 22,109.98 0,39.09 -7.34,75.4 -22,108.92 -14.66,33.52 -34.56,62.84 -59.7,87.98 -25.14,25.14 -54.81,44.68 -89.03,58.65 -34.2,13.97 -70.86,20.95 -109.97,20.95l-1269.4 0c-27.92,0 -51.67,-9.78 -71.22,-29.33 -19.55,-19.55 -29.32,-43.29 -29.32,-71.22 0,-27.93 9.77,-51.67 29.32,-71.23 19.55,-19.54 43.3,-29.32 71.22,-29.32l1277.78 0c20.95,0 39.1,-7.32 54.46,-21.99 15.36,-14.66 23.05,-32.46 23.05,-53.41 0,-22.35 -7.69,-41.2 -23.05,-56.56 -15.36,-15.36 -33.51,-23.04 -54.46,-23.04l-1162.57 0zm3186.07 -557.2c27.93,0 51.67,9.78 71.23,29.32 19.54,19.55 29.32,43.3 29.32,71.22 0,26.54 -9.08,49.23 -27.23,68.08 -18.16,18.85 -39.81,29.68 -64.94,32.47l-421.04 0c-41.89,2.8 -76.46,12.91 -103.69,30.38 -27.23,17.45 -48.53,38.75 -63.89,63.88 -15.36,25.14 -25.84,52.37 -31.42,81.69 -5.59,29.33 -8.37,55.87 -8.37,79.6l0 356.11c0,27.93 -9.78,51.67 -29.33,71.22 -19.56,19.55 -43.29,29.33 -71.23,29.33 -27.93,0 -51.66,-9.78 -71.22,-29.33 -19.55,-19.55 -29.33,-43.29 -29.33,-71.22l0 -356.11c0,-43.29 5.59,-86.92 16.77,-130.91 11.17,-44 27.93,-85.54 50.27,-124.64l-687.07 0c-27.92,0 -51.67,-9.78 -71.23,-29.33 -19.54,-19.54 -29.31,-43.29 -29.31,-71.22 0,-27.92 9.77,-51.67 29.31,-71.22 19.56,-19.54 43.31,-29.32 71.23,-29.32l1441.17 0zm668.21 687.07c0,-36.31 12.57,-67.04 37.71,-92.17 25.13,-25.14 55.86,-37.7 92.17,-37.7 36.31,0 67.03,12.56 92.16,37.7 25.14,25.13 37.71,55.86 37.71,92.17 0,36.31 -12.57,67.03 -37.71,92.17 -25.13,25.13 -55.85,37.7 -92.16,37.7 -36.31,0 -67.04,-12.57 -92.17,-37.7 -25.14,-25.14 -37.71,-55.86 -37.71,-92.17zm-441.98 188.52c-20.95,25.14 -46.78,37.71 -77.51,37.71 -27.92,0 -51.67,-9.78 -71.22,-29.33 -19.55,-19.55 -29.32,-43.29 -29.32,-71.22 0,-25.14 6.98,-45.39 20.94,-60.75l509.02 -684.97c23.74,-32.11 55.16,-58.3 94.26,-78.55 39.11,-20.25 81,-30.38 125.69,-30.38 41.89,0 81.68,9.08 119.4,27.23 37.7,18.16 68.43,43.29 92.16,75.41l509.03 680.78c8.37,9.78 15.35,20.6 20.94,32.48 5.59,11.87 8.38,24.78 8.38,38.75 0,27.93 -9.78,51.67 -29.32,71.22 -19.56,19.55 -43.3,29.33 -71.23,29.33 -33.51,0 -60.04,-13.26 -79.6,-39.81l-488.08 -651.45c-9.76,-11.17 -21.99,-23.39 -36.64,-36.66 -14.67,-13.26 -29.68,-19.9 -45.04,-19.9 -15.37,0 -30.38,6.64 -45.05,19.9 -14.65,13.27 -26.18,25.49 -34.55,36.66l-492.26 653.55zm1732.33 -418.95c0,25.14 3.15,52.72 9.43,82.75 6.28,30.03 18.15,57.6 35.6,82.74 17.47,25.14 41.2,46.44 71.23,63.89 30.03,17.45 69.47,26.18 118.35,26.18l833.7 0c47.48,0 86.59,-8.73 117.31,-26.18 30.71,-17.45 54.81,-38.75 72.26,-63.89 17.46,-25.14 29.33,-52.71 35.61,-82.74 6.29,-30.03 9.43,-57.61 9.43,-82.75l0 -356.1c0,-27.92 9.78,-51.67 29.32,-71.22 19.56,-19.54 43.3,-29.32 71.23,-29.32 27.92,0 51.67,9.78 71.21,29.32 19.56,19.55 29.33,43.3 29.33,71.22l0 356.1c0,53.08 -8.73,106.49 -26.18,160.26 -17.45,53.76 -42.94,102.63 -76.45,146.63 -33.52,43.98 -74.02,79.95 -121.5,107.87 -47.48,27.93 -101.25,41.9 -161.29,41.9l-955.2 0c-57.26,-2.8 -108.23,-18.5 -152.91,-47.14 -44.7,-28.62 -82.75,-64.58 -114.17,-107.87 -31.42,-43.3 -55.5,-91.48 -72.26,-144.54 -16.77,-53.07 -25.14,-105.44 -25.14,-157.11l0 -356.1c0,-27.92 9.78,-51.67 29.32,-71.22 19.56,-19.54 43.3,-29.32 71.23,-29.32 27.92,0 51.67,9.78 71.21,29.32 19.56,19.55 29.33,43.3 29.33,71.22l0 356.1z"/>
   <path class="fil3" d="M10501.85 12546.51l0 101.05 757.79 0c13.65,0 25.71,-4.78 36.17,-14.35 10.47,-9.55 15.7,-21.61 15.7,-36.18 0,-13.66 -5.23,-25.49 -15.7,-35.5 -10.46,-10.02 -22.52,-15.02 -36.17,-15.02l-757.79 0zm752.32 -131.07c25.48,0 49.38,4.78 71.69,14.33 22.29,9.56 41.87,22.53 58.7,38.92 16.85,16.38 30.05,35.5 39.6,57.34 9.56,21.85 14.34,45.51 14.34,71 0,25.49 -4.78,49.16 -14.34,71.01 -9.55,21.84 -22.75,40.96 -39.6,57.34 -16.83,16.38 -36.41,29.36 -58.7,38.91 -22.31,9.56 -46.21,14.34 -71.69,14.34l-752.32 0 0 166.57c0,18.21 -6.6,33.68 -19.8,46.43 -13.21,12.74 -28.46,19.11 -45.74,19.11 -18.21,0 -33.69,-6.37 -46.43,-19.11 -12.74,-12.75 -19.11,-28.22 -19.11,-46.43l0 -464.23c0,-18.21 6.37,-33.67 19.11,-46.42 12.74,-12.75 28.22,-19.11 46.43,-19.11l817.86 0zm1388.6 529.76c0,18.21 -6.38,33.68 -19.11,46.43 -12.75,12.74 -28.23,19.11 -46.43,19.11 -9.11,0 -17.29,-1.82 -24.57,-5.45 -7.29,-3.65 -14.12,-8.2 -20.48,-13.66 -5.47,-5.47 -9.57,-10.02 -12.3,-13.65 -37.31,-46.43 -75.77,-82.84 -115.38,-109.23 -39.59,-26.41 -81.23,-46.43 -124.92,-60.09 -43.7,-13.65 -89.89,-22.06 -138.59,-25.26 -48.7,-3.18 -100.82,-4.77 -156.34,-4.77l-278.53 0 0 166.57c0,18.21 -6.6,33.68 -19.8,46.43 -13.2,12.74 -28.46,19.11 -45.74,19.11 -18.21,0 -33.69,-6.37 -46.43,-19.11 -12.74,-12.75 -19.11,-28.22 -19.11,-46.43l0 -350.9c0,-27.31 5,-51.89 15.02,-73.73 10.01,-21.85 22.76,-40.51 38.22,-55.98 15.48,-15.48 33.23,-27.54 53.26,-36.19 20.03,-8.64 40.04,-12.96 60.07,-12.96l712.73 0c25.5,0 49.61,4.78 72.37,14.33 22.76,9.56 42.78,22.53 60.08,38.92 17.29,16.38 30.95,35.5 40.96,57.34 10.01,21.85 15.02,45.51 15.02,71 0,18.2 -6.38,33.68 -19.11,46.43 -12.75,12.73 -28.23,19.11 -46.43,19.11 -18.21,0 -33.67,-6.38 -46.42,-19.11 -12.75,-12.75 -19.11,-28.23 -19.11,-46.43 0,-13.66 -4.79,-25.03 -14.35,-34.14 -9.55,-9.1 -20.71,-14.56 -33.44,-16.38l-715.47 0c-11.83,0 -21.39,2.97 -28.67,8.88 -7.29,5.92 -11.84,12.97 -13.65,21.16l0 71.01 278.53 0c80.1,0 152.47,4.55 217.09,13.65 64.64,9.1 123.12,23.89 175.46,44.37 52.34,20.48 99.22,47.34 140.63,80.56 41.42,33.22 78.52,73.96 111.28,122.2 9.11,11.83 13.66,24.12 13.66,36.86zm968.05 -65.53c30.96,0 56.44,-5.69 76.47,-17.07 20.03,-11.38 35.73,-25.26 47.11,-41.64 11.38,-16.38 19.11,-34.36 23.21,-53.94 4.1,-19.56 6.15,-37.54 6.15,-53.93 0,-16.39 -2.05,-34.37 -6.15,-53.93 -4.1,-19.57 -11.83,-37.55 -23.21,-53.94 -11.38,-16.38 -27.08,-30.26 -47.11,-41.64 -20.03,-11.37 -45.51,-17.07 -76.47,-17.07l-551.61 0c-31.86,0 -57.57,5.7 -77.14,17.07 -19.58,11.38 -35.05,25.26 -46.42,41.64 -11.38,16.39 -19.13,34.37 -23.22,53.94 -4.09,19.56 -6.14,37.54 -6.14,53.93 0,16.39 2.05,34.37 6.14,53.93 4.09,19.58 11.84,37.56 23.22,53.94 11.37,16.38 26.84,30.26 46.42,41.64 19.57,11.38 45.28,17.07 77.14,17.07l551.61 0zm279.91 -166.58c0,34.59 -5.69,69.41 -17.06,104.45 -11.38,35.05 -27.99,66.91 -49.84,95.58 -21.85,28.67 -48.24,52.11 -79.2,70.31 -30.94,18.21 -65.99,27.31 -105.13,27.31l-622.62 0c-37.32,-1.82 -70.55,-12.05 -99.67,-30.71 -29.13,-18.66 -53.93,-42.11 -74.41,-70.32 -20.48,-28.23 -36.19,-59.62 -47.11,-94.22 -10.93,-34.59 -16.38,-68.72 -16.38,-102.4 0,-34.59 5.68,-69.41 17.06,-104.45 11.38,-35.05 28,-66.91 49.84,-95.57 21.85,-28.68 48.25,-52.12 79.19,-70.32 30.95,-18.21 65.99,-27.31 105.13,-27.31l622.62 0c37.32,1.81 70.55,12.06 99.68,30.72 29.13,18.65 53.93,42.1 74.41,70.31 20.48,28.22 36.18,59.62 47.11,94.21 10.92,34.6 16.38,68.74 16.38,102.41zm267.62 68.27c0,12.74 3.63,24.8 10.91,36.18 7.29,11.38 17.08,21.85 29.36,31.41 12.29,9.55 26.85,17.07 43.69,22.53 16.85,5.45 34.82,8.19 53.94,8.19l550.25 0c30.04,0 54.84,-5.01 74.42,-15.02 19.56,-10.01 35.04,-22.76 46.42,-38.23 11.37,-15.48 19.57,-32.32 24.57,-50.52 5.01,-18.21 7.51,-35.51 7.51,-51.89l0 -243.04c0,-18.21 6.6,-33.67 19.8,-46.42 13.2,-12.75 28.44,-19.11 45.74,-19.11 18.21,0 33.68,6.36 46.42,19.11 12.75,12.75 19.12,28.21 19.12,46.42l0 232.12c0,34.59 -5.92,69.41 -17.75,104.45 -11.83,35.05 -28.9,66.91 -51.21,95.58 -22.29,28.67 -49.37,52.11 -81.23,70.31 -31.86,18.21 -67.36,27.31 -106.5,27.31l-617.16 0c-30.95,0 -60.31,-6.37 -88.07,-19.11 -27.76,-12.75 -52.11,-29.81 -73.04,-51.21 -20.94,-21.38 -37.56,-45.96 -49.84,-73.72 -12.29,-27.76 -18.43,-56.21 -18.43,-85.34 0,-18.21 6.6,-33.68 19.8,-46.42 13.19,-12.75 28.44,-19.11 45.74,-19.11 18.2,0 33.68,6.36 46.42,19.11 12.74,12.74 19.12,28.21 19.12,46.42zm2084.94 -133.8c18.21,0 33.69,6.36 46.42,19.11 12.75,12.75 19.12,28.21 19.12,46.42 0,18.2 -6.37,33.68 -19.12,46.43 -12.73,12.73 -28.21,19.11 -46.42,19.11l-679.96 0c-18.21,0 -33.68,-6.38 -46.42,-19.11 -12.75,-12.75 -19.12,-28.23 -19.12,-46.43 0,-18.21 6.37,-33.67 19.12,-46.42 12.74,-12.75 28.21,-19.11 46.42,-19.11l679.96 0zm-694.97 -101.05c-31.86,0 -57.59,5.7 -77.15,17.07 -19.57,11.38 -35.05,25.26 -46.43,41.64 -11.38,16.39 -19.11,34.37 -23.21,53.94 -4.1,19.56 -6.15,37.54 -6.15,53.93 0,16.39 2.05,34.37 6.15,53.93 4.1,19.58 11.83,37.56 23.21,53.94 11.38,16.38 26.86,30.26 46.43,41.64 19.56,11.38 45.29,17.07 77.15,17.07l752.32 0c18.2,0 33.68,6.36 46.43,19.11 12.73,12.75 19.11,28.22 19.11,46.42 0,18.21 -6.38,33.68 -19.11,46.43 -12.75,12.74 -28.23,19.11 -46.43,19.11l-796.03 0c-37.31,0 -70.54,-9.1 -99.66,-27.31 -29.13,-18.2 -53.94,-41.64 -74.42,-70.31 -20.48,-28.67 -36.18,-60.76 -47.11,-96.26 -10.92,-35.5 -16.38,-70.09 -16.38,-103.77 0,-34.59 5.68,-69.41 17.06,-104.45 11.38,-35.05 28,-66.91 49.84,-95.57 21.85,-28.68 48.25,-52.12 79.2,-70.32 30.95,-18.21 65.99,-27.31 105.13,-27.31l782.37 0c18.2,0 33.68,6.36 46.43,19.11 12.73,12.75 19.11,28.21 19.11,46.42 0,18.2 -6.38,33.68 -19.11,46.43 -12.75,12.74 -28.23,19.11 -46.43,19.11l-752.32 0zm920.26 166.58c0,-34.59 5.69,-69.41 17.06,-104.45 11.38,-35.05 28,-66.91 49.84,-95.57 21.85,-28.68 48.26,-52.12 79.2,-70.32 30.95,-18.21 65.99,-27.31 105.13,-27.31l796.02 0c18.21,0 33.69,6.36 46.43,19.11 12.74,12.75 19.11,28.21 19.11,46.42 0,18.2 -6.37,33.68 -19.11,46.43 -12.74,12.74 -28.22,19.11 -46.43,19.11l-767.34 0c-31.86,0 -57.57,5.7 -77.15,17.07 -19.57,11.38 -35.04,25.26 -46.42,41.64 -11.37,16.39 -19.12,34.37 -23.22,53.94 -4.08,19.56 -6.13,37.54 -6.13,53.93 0,16.39 2.05,34.37 6.13,53.93 4.1,19.58 11.85,37.56 23.22,53.94 11.38,16.38 26.85,30.26 46.42,41.64 19.58,11.38 45.29,17.07 77.15,17.07l767.34 0c18.21,0 33.69,6.36 46.43,19.11 12.74,12.75 19.11,28.22 19.11,46.42 0,18.21 -6.37,33.68 -19.11,46.43 -12.74,12.74 -28.22,19.11 -46.43,19.11l-809.67 0c-37.32,0 -70.55,-9.1 -99.67,-27.31 -29.13,-18.2 -53.93,-41.64 -74.42,-70.31 -20.48,-28.67 -36.18,-60.76 -47.1,-96.26 -10.93,-35.5 -16.39,-70.09 -16.39,-103.77zm2254.26 -297.65c18.21,0 33.67,6.36 46.42,19.11 12.75,12.75 19.11,28.21 19.11,46.42 0,17.3 -5.91,32.1 -17.74,44.38 -11.84,12.28 -25.95,19.34 -42.33,21.16l-274.45 0c-27.3,1.82 -49.83,8.42 -67.58,19.8 -17.75,11.38 -31.63,25.26 -41.65,41.64 -10.01,16.39 -16.83,34.14 -20.48,53.26 -3.63,19.11 -5.46,36.41 -5.46,51.88l0 232.11c0,18.21 -6.37,33.68 -19.11,46.43 -12.74,12.74 -28.22,19.11 -46.43,19.11 -18.2,0 -33.68,-6.37 -46.42,-19.11 -12.74,-12.75 -19.12,-28.22 -19.12,-46.43l0 -232.11c0,-28.22 3.65,-56.66 10.93,-85.34 7.28,-28.67 18.2,-55.75 32.77,-81.24l-447.85 0c-18.2,0 -33.68,-6.37 -46.43,-19.11 -12.73,-12.75 -19.11,-28.23 -19.11,-46.43 0,-18.21 6.38,-33.67 19.11,-46.42 12.75,-12.75 28.23,-19.11 46.43,-19.11l939.39 0z"/>
   <path class="fil0" d="M15022.89 4226.18c1549.06,0 2980.17,504.06 4138.85,1356.82l-349.04 190.01 -0.03 0.07c-1097.3,-679.51 -2396.68,-1072.87 -3789.78,-1072.87 -1435.24,0 -2771,417.54 -3888.82,1135.34l-0.02 -0.01 -734.89 138.87c1232.27,-1087.83 2850.71,-1748.23 4623.73,-1748.23zm4849.33 1956.22c975.68,940.09 1678.99,2160.92 1979.37,3532.7 -389.55,-1300.71 -1153.8,-2443.76 -2169.97,-3308.85l0.04 -0.03 190.56 -223.82zm-10080.18 768.77c-731.5,778.42 -1285.34,1720.41 -1597.85,2763.93 234.34,-1070.21 713.83,-2048.69 1376.67,-2873.54l221.16 109.58 0.02 0.03z"/>
  </g>
 </g>
</svg>
